<svg class="animated" id="freepik_stories-environmental-audit" xmlns="http://www.w3.org/2000/svg" viewBox="0 0 500 500" version="1.1" xmlns:xlink="http://www.w3.org/1999/xlink" xmlns:svgjs="http://svgjs.com/svgjs"><style>svg#freepik_stories-environmental-audit:not(.animated) .animable {opacity: 0;}svg#freepik_stories-environmental-audit.animated #freepik--Earth--inject-42 {animation: 1.5s Infinite  linear floating;animation-delay: 0s;}svg#freepik_stories-environmental-audit.animated #freepik--Document--inject-42 {animation: 3s Infinite  linear floating;animation-delay: 2s;}svg#freepik_stories-environmental-audit.animated #freepik--Character--inject-42 {animation: 1.5s Infinite  linear floating;animation-delay: 0s;}            @keyframes floating {                0% {                    opacity: 1;                    transform: translateY(0px);                }                50% {                    transform: translateY(-10px);                }                100% {                    opacity: 1;                    transform: translateY(0px);                }            }        </style><g id="freepik--background-simple--inject-42" class="animable" style="transform-origin: 275.8px 238.661px;"><path d="M184.76,449.92l1.2-1a35.07,35.07,0,0,0,12.41-34.1A33.77,33.77,0,0,0,197,410a36.82,36.82,0,0,0-26.29-22.75c-7-1.52-14.73-1.12-20.66-5.06-7.73-5.12-9.42-15.44-10.44-24.59s-2.74-19.48-10.49-24.57c-4.85-3.18-11.15-3.51-16.88-2.38-15.16,3-27.3,15.59-32.15,30.1S76.91,391.31,82,405.7c7.15,20.16,21.47,38.25,40.91,47.58S167,462.15,184.76,449.92Z" style="fill: rgb(245, 245, 245); transform-origin: 138.116px 394.903px;" id="el1veq5emi988" class="animable"></path><path d="M88.62,92.83,89.18,94a29.46,29.46,0,0,0,25.32,17,26.65,26.65,0,0,0,4.19-.15A30.93,30.93,0,0,0,142.54,94c2.65-5.39,3.88-11.78,8.29-15.83,5.73-5.27,14.49-4.58,22.16-3.57s16.44,1.69,22.15-3.61c3.57-3.32,5.11-8.39,5.34-13.29.61-13-7.22-25.4-18.08-32.28s-24.27-8.74-37-7.48c-17.88,1.78-35.53,9.81-47.05,23.8S82.22,75.85,88.62,92.83Z" style="fill: rgb(245, 245, 245); transform-origin: 143.117px 64.2986px;" id="elniksveez5fb" class="animable"></path><path d="M402.05,236.66l-1.2.5a28.88,28.88,0,0,0-18.15,28.73,30.93,30.93,0,0,0,15.77,24.59c5.27,2.89,11.6,4.4,15.44,9,5,6,3.92,14.69,2.56,22.3s-2.42,16.35,2.61,22.29c3.15,3.72,8.15,5.49,13,5.94,12.93,1.19,25.71-6.07,33.07-16.61s9.83-23.84,9.14-36.65c-1-17.94-8.19-35.93-21.64-48.07S419.3,231,402.05,236.66Z" style="fill: rgb(245, 245, 245); transform-origin: 428.519px 292.286px;" id="elx2ygb1d8oei" class="animable"></path><circle cx="250" cy="424.1" r="27.95" style="fill: rgb(245, 245, 245); transform-origin: 250px 424.1px;" id="elu1v7ikdwojd" class="animable"></circle><g id="el8rc4c4xzcms"><circle cx="241.02" cy="52.22" r="22.2" style="fill: rgb(245, 245, 245); transform-origin: 241.02px 52.22px; transform: rotate(-76.39deg);" class="animable"></circle></g></g><g id="freepik--Floor--inject-42" class="animable" style="transform-origin: 250px 469.85px;"><path d="M460.38,469.85c0,.15-94.2.26-210.37.26S39.62,470,39.62,469.85s94.18-.26,210.39-.26S460.38,469.71,460.38,469.85Z" style="fill: rgb(38, 50, 56); transform-origin: 250px 469.85px;" id="elinq6kiib2t" class="animable"></path></g><g id="freepik--Earth--inject-42" class="animable animator-active" style="transform-origin: 383.112px 113.792px;"><path d="M451.47,113.68A68.43,68.43,0,0,1,383,182.11c-17.29,0-33.54-6.06-45.59-16.64-14.29-12.54-22.85-31.28-22.85-51.79a68.44,68.44,0,0,1,136.87,0Z" style="fill: rgb(173, 122, 200); transform-origin: 383.015px 114.088px;" id="eludl6emjsys" class="animable"></path><path d="M451.31,119.65c.08-.8.15-1.58.2-2.37s.09-1.67.12-2.5c0,.83-.07,1.66-.12,2.5S451.39,118.85,451.31,119.65Z" style="fill: rgb(38, 50, 56); transform-origin: 451.47px 117.215px;" id="elp63w9qbw2cp" class="animable"></path><g id="eln54wzawpu5"><path d="M405.82,152.74c-2.2,2.25-3.14,5.42-4.22,8.4s-2.52,6.07-5.23,7.63-6.94.61-7.65-2.46c-.39-1.67.32-3.41.27-5.12-.07-2.24-1.41-4.22-1.8-6.41a16.52,16.52,0,0,1,.36-5.68c1.72-10.29,1.38-21.45-4-30.3a6.75,6.75,0,0,0-2.56-2.73,3.86,3.86,0,0,0-4.2.6c-.69.63-1.16,1.52-2,2-1.73,1.07-4.08-.4-4.71-2.35s-.07-4.07.49-6c.69-2.45,1.39-4.9,2.08-7.35a6.63,6.63,0,0,1,1.82-3.48c1.47-1.17,3.63-.81,5.31-1.63,2.2-1.09,3-3.82,4.63-5.69s5.57-2,5.66.48c5.72-7.93,12,6.76,17.43,6.83,1.58,0,3.22-.43,4.71.09,2.64.92,3.44,4.24,3.84,7l2,14c.25,1.77.64,3.77,2.13,4.72,1.14.73,2.65.65,3.8,1.35,3.05,1.88.94,7-2.18,8.76s-7.12,2.55-9,5.64c-1.45,2.32-1.27,5.41-2.78,7.69C409,150.36,407.18,151.34,405.82,152.74Z" style="fill: rgb(173, 122, 200); opacity: 0.3; transform-origin: 397.633px 129.905px;" class="animable"></path></g><g id="elgb2n7yvdgts"><path d="M405.82,152.74c-2.2,2.25-3.14,5.42-4.22,8.4s-2.52,6.07-5.23,7.63-6.94.61-7.65-2.46c-.39-1.67.32-3.41.27-5.12-.07-2.24-1.41-4.22-1.8-6.41a16.52,16.52,0,0,1,.36-5.68c1.72-10.29,1.38-21.45-4-30.3a6.75,6.75,0,0,0-2.56-2.73,3.86,3.86,0,0,0-4.2.6c-.69.63-1.16,1.52-2,2-1.73,1.07-4.08-.4-4.71-2.35s-.07-4.07.49-6c.69-2.45,1.39-4.9,2.08-7.35a6.63,6.63,0,0,1,1.82-3.48c1.47-1.17,3.63-.81,5.31-1.63,2.2-1.09,3-3.82,4.63-5.69s5.57-2,5.66.48c5.72-7.93,12,6.76,17.43,6.83,1.58,0,3.22-.43,4.71.09,2.64.92,3.44,4.24,3.84,7l2,14c.25,1.77.64,3.77,2.13,4.72,1.14.73,2.65.65,3.8,1.35,3.05,1.88.94,7-2.18,8.76s-7.12,2.55-9,5.64c-1.45,2.32-1.27,5.41-2.78,7.69C409,150.36,407.18,151.34,405.82,152.74Z" style="opacity: 0.3; transform-origin: 397.633px 129.905px;" class="animable"></path></g><g id="eloa1wxauoyfa"><path d="M417.76,158.05c-1.11-.06-2.28-.86-3.25-.28a3.68,3.68,0,0,0-1.12,1.59,3.76,3.76,0,0,1-2,1.83,2.29,2.29,0,0,1-2.49-.54,1.78,1.78,0,0,1,.13-2.46c.32-.26.74-.36,1.09-.59,1.71-1.1,1.23-3.86,2.65-5.29.83-.84,2-1.62,2.95-2.47.69-.64,1-1.2,2.05-1.21C422.36,148.62,422.5,158.31,417.76,158.05Z" style="opacity: 0.3; transform-origin: 414.866px 154.99px;" class="animable"></path></g><g id="elppwu44k4v9i"><path d="M334.5,162.66c.49.5,1,1,1.49,1.47.35.34.71.67,1.07,1-.36-.33-.72-.66-1.07-1C335.48,163.65,335,163.16,334.5,162.66Z" style="fill: rgb(38, 50, 56); opacity: 0.3; transform-origin: 335.78px 163.895px;" class="animable"></path></g><path d="M450.47,125.55c.19-1,.35-2,.49-3-.14,1-.3,2-.49,3,0,.31-.11.63-.17.94-.3,1.52-.65,3-1,4.48.38-1.48.73-3,1-4.48C450.36,126.18,450.43,125.86,450.47,125.55Z" style="fill: rgb(38, 50, 56); transform-origin: 450.13px 126.76px;" id="elva89lf9j3n8" class="animable"></path><path d="M450.81,101.75c.15.93.27,1.87.38,2.8-.11-.93-.23-1.87-.38-2.8,0,0,0,0,0,0h0Z" style="fill: rgb(38, 50, 56); transform-origin: 451px 103.15px;" id="elp9xnukir13" class="animable"></path><g id="elwasz7m9x3mp"><path d="M450.47,125.55c.19-1,.35-2,.49-3s.26-2,.35-2.94c.08-.8.15-1.58.2-2.37s.09-1.67.12-2.5a70.26,70.26,0,0,0-.16-7.41c-.08-1-.17-1.89-.28-2.82s-.23-1.87-.38-2.8h0q-.31-1.06-.72-2.13c-2.54-6.76-7-12.55-10-19.13-1-2.14-1.7-3.89-4-4.73-3.4-1.24-5.58.44-7.39-3.44-.49-1-1.5-2.12-2.59-1.77.11.77.23,1.55.34,2.34a1,1,0,0,1,0,.49c-.15.5-.92.49-1.29.13a4.65,4.65,0,0,1-.7-1.41,3.46,3.46,0,0,0-5-1.42,2,2,0,0,0-.8-1.83,2.35,2.35,0,0,1-3.27,1.33c-.07-.7,1.11-.59,1.63-1.08s.17-1.28-.22-1.82a7.43,7.43,0,0,0-4.26-2.74c-1.07-.24-2.27-.26-3.09-1-.48-.43-.76-1.05-1.25-1.47-1-.92-2.64-.58-4-.15-1.81.6-3.71,1.43-4.65,3.13s-.13,4.37,1.76,4.51a3.68,3.68,0,0,1,1.45.11,1.8,1.8,0,0,1,.68,1.86,5.1,5.1,0,0,0-.09,2.09c.2.67,1.1,1.16,1.59.66,1-.67,1.21-2.11,1.23-3.36s.05-2.64.94-3.49,2.87-.13,2.49,1c-.23.7-1.13,1.06-1.24,1.8s.69,1.3,1.42,1.41A8.2,8.2,0,0,1,412,72c.68.32,1.06,1.37.44,1.8-1.08.84-3-1.35-3.74-.18a3.94,3.94,0,0,0-.24,1c-.29,1-1.68,1.17-2.75,1.1a5.77,5.77,0,0,1-3-.84,2.06,2.06,0,0,1-.54-2.84,1.19,1.19,0,0,0-1.74.28,3.6,3.6,0,0,0-.51,2c-1.06-.47-2.23.29-3.05,1.11s-1.65,1.81-2.79,1.93-2.55-.62-3.31.26c-1,1.15.81,3.22-.19,4.36-.57.64-1.58.42-2.43.49-2.26.19-3.64,3.23-2.52,5.22a4.21,4.21,0,0,0,5.92,1.15c1.29-.91,2-2.39,3.08-3.58s2.75-2.1,4.13-1.38a4.63,4.63,0,0,1,1.33,1.28q.89,1.11,1.77,2.25a2,2,0,0,1,.62,1.66c-.14.48-.58.79-.83,1.21-.71,1.22.9,2.84,2.22,2.35A2.69,2.69,0,0,0,405.08,89c-.8-1.78-3.14-3.05-2.7-5,1.49-.8,3.28.71,3.73,2.36s.11,3.42.43,5.1,1.81,3.4,3.42,2.93c-.11-1.41-.22-2.82-.34-4.23,1.07-.53,1.74,1.76,2.92,1.64.73-.08,1-1.06.84-1.79a10.32,10.32,0,0,1-.56-2.15,2.25,2.25,0,0,1,3-1.78,3.41,3.41,0,0,1,1.93,3.28,6.26,6.26,0,0,0,0,1.62c.28,1.13,1.48,1.7,2.44,2.34s1.84,1.93,1.19,2.9c-.29.43-.86.78-.78,1.29s.65.76.56,1.21c-.07.3-.42.45-.72.51-.76.16-1.54.1-2.29.3a2,2,0,0,0-1.59,1.51c-.13,1.1,1,1.87,1.45,2.89s.1,2.09.27,3.13a10.74,10.74,0,0,0,1.13,2.69c1.28,2.8,1.07,6,1.36,9.11.12,1.38.54,3,1.81,3.49a4,4,0,0,0,2.21,0c2.05-.39,4.19-.82,5.83-2.13s2.61-3.8,1.54-5.61a1.13,1.13,0,0,0-.56-.56,2.1,2.1,0,0,0-1.07.16,2.86,2.86,0,0,1-2.84-1.23,8.52,8.52,0,0,1-1.23-3c-.31-1.17-.62-2.36-.94-3.55a1.88,1.88,0,0,1,2.24.67,12.67,12.67,0,0,1,1.16,2.26c1.19,2.32,3.62,3.73,6.08,4.53a6.29,6.29,0,0,1,1.81.77c1.71,1.25,1.69,4.19,3.56,5.19a12.31,12.31,0,0,1,1.61.72,3.21,3.21,0,0,1,1,2.42,35.25,35.25,0,0,0,.3,5c.35,1.64,1.41,3.28,3,3.62a3.92,3.92,0,0,0,2.94-.69h0c.38-1.48.73-3,1-4.48C450.36,126.18,450.43,125.86,450.47,125.55Z" style="fill: rgb(173, 122, 200); opacity: 0.3; transform-origin: 418.449px 96.5547px;" class="animable"></path></g><g id="elu16gbwrwy3f"><path d="M450.47,125.55c.19-1,.35-2,.49-3s.26-2,.35-2.94c.08-.8.15-1.58.2-2.37s.09-1.67.12-2.5a70.26,70.26,0,0,0-.16-7.41c-.08-1-.17-1.89-.28-2.82s-.23-1.87-.38-2.8h0q-.31-1.06-.72-2.13c-2.54-6.76-7-12.55-10-19.13-1-2.14-1.7-3.89-4-4.73-3.4-1.24-5.58.44-7.39-3.44-.49-1-1.5-2.12-2.59-1.77.11.77.23,1.55.34,2.34a1,1,0,0,1,0,.49c-.15.5-.92.49-1.29.13a4.65,4.65,0,0,1-.7-1.41,3.46,3.46,0,0,0-5-1.42,2,2,0,0,0-.8-1.83,2.35,2.35,0,0,1-3.27,1.33c-.07-.7,1.11-.59,1.63-1.08s.17-1.28-.22-1.82a7.43,7.43,0,0,0-4.26-2.74c-1.07-.24-2.27-.26-3.09-1-.48-.43-.76-1.05-1.25-1.47-1-.92-2.64-.58-4-.15-1.81.6-3.71,1.43-4.65,3.13s-.13,4.37,1.76,4.51a3.68,3.68,0,0,1,1.45.11,1.8,1.8,0,0,1,.68,1.86,5.1,5.1,0,0,0-.09,2.09c.2.67,1.1,1.16,1.59.66,1-.67,1.21-2.11,1.23-3.36s.05-2.64.94-3.49,2.87-.13,2.49,1c-.23.7-1.13,1.06-1.24,1.8s.69,1.3,1.42,1.41A8.2,8.2,0,0,1,412,72c.68.32,1.06,1.37.44,1.8-1.08.84-3-1.35-3.74-.18a3.94,3.94,0,0,0-.24,1c-.29,1-1.68,1.17-2.75,1.1a5.77,5.77,0,0,1-3-.84,2.06,2.06,0,0,1-.54-2.84,1.19,1.19,0,0,0-1.74.28,3.6,3.6,0,0,0-.51,2c-1.06-.47-2.23.29-3.05,1.11s-1.65,1.81-2.79,1.93-2.55-.62-3.31.26c-1,1.15.81,3.22-.19,4.36-.57.64-1.58.42-2.43.49-2.26.19-3.64,3.23-2.52,5.22a4.21,4.21,0,0,0,5.92,1.15c1.29-.91,2-2.39,3.08-3.58s2.75-2.1,4.13-1.38a4.63,4.63,0,0,1,1.33,1.28q.89,1.11,1.77,2.25a2,2,0,0,1,.62,1.66c-.14.48-.58.79-.83,1.21-.71,1.22.9,2.84,2.22,2.35A2.69,2.69,0,0,0,405.08,89c-.8-1.78-3.14-3.05-2.7-5,1.49-.8,3.28.71,3.73,2.36s.11,3.42.43,5.1,1.81,3.4,3.42,2.93c-.11-1.41-.22-2.82-.34-4.23,1.07-.53,1.74,1.76,2.92,1.64.73-.08,1-1.06.84-1.79a10.32,10.32,0,0,1-.56-2.15,2.25,2.25,0,0,1,3-1.78,3.41,3.41,0,0,1,1.93,3.28,6.26,6.26,0,0,0,0,1.62c.28,1.13,1.48,1.7,2.44,2.34s1.84,1.93,1.19,2.9c-.29.43-.86.78-.78,1.29s.65.76.56,1.21c-.07.3-.42.45-.72.51-.76.16-1.54.1-2.29.3a2,2,0,0,0-1.59,1.51c-.13,1.1,1,1.87,1.45,2.89s.1,2.09.27,3.13a10.74,10.74,0,0,0,1.13,2.69c1.28,2.8,1.07,6,1.36,9.11.12,1.38.54,3,1.81,3.49a4,4,0,0,0,2.21,0c2.05-.39,4.19-.82,5.83-2.13s2.61-3.8,1.54-5.61a1.13,1.13,0,0,0-.56-.56,2.1,2.1,0,0,0-1.07.16,2.86,2.86,0,0,1-2.84-1.23,8.52,8.52,0,0,1-1.23-3c-.31-1.17-.62-2.36-.94-3.55a1.88,1.88,0,0,1,2.24.67,12.67,12.67,0,0,1,1.16,2.26c1.19,2.32,3.62,3.73,6.08,4.53a6.29,6.29,0,0,1,1.81.77c1.71,1.25,1.69,4.19,3.56,5.19a12.31,12.31,0,0,1,1.61.72,3.21,3.21,0,0,1,1,2.42,35.25,35.25,0,0,0,.3,5c.35,1.64,1.41,3.28,3,3.62a3.92,3.92,0,0,0,2.94-.69h0c.38-1.48.73-3,1-4.48C450.36,126.18,450.43,125.86,450.47,125.55Z" style="opacity: 0.3; transform-origin: 418.449px 96.5547px;" class="animable"></path></g><g id="el8uga6qfxua"><path d="M377.09,59.52c-1.5.54-2.51,1.93-3.77,2.92s-3.27,1.46-4.28.23a2.94,2.94,0,0,1-.52-2.19,5.33,5.33,0,0,1,1.35-3c.76-.84,1.8-1.42,2.49-2.34s.88-2.41,0-3.08c-.49-.37-1.2-.4-1.61-.86-.73-.82.19-2.23,1.27-2.42a7.66,7.66,0,0,1,3.2.61c3.85,1,7.22-1,10.58-2.58,2.61-1.23,7.85-2.26,10.14,0,.92.89,1,2.73-.16,3.31-.51.26-1.14.21-1.63.51s-.8,1.11-1.21,1.67c-1.05,1.46-3.29,1.62-4.3,3.11-.61.9-.66,2.16-1.46,2.88a3.73,3.73,0,0,1-2.41.68l-5.32.22A7.61,7.61,0,0,0,377.09,59.52Z" style="opacity: 0.3; transform-origin: 382.561px 54.4408px;" class="animable"></path></g><g id="elrfx3i1ogi4c"><path d="M324.32,81.19c1.48-.85,3.67-.55,4.37,1,.5,1.11.07,2.41-.34,3.56-.57,1.56-1.13,3.11-1.7,4.66a2.65,2.65,0,0,0-.22,1.46c.27,1.11,1.94,1.24,2.75.45a4.59,4.59,0,0,0,1-3.18,6.43,6.43,0,0,1,.69-3.32c1.57-2.37,5.27-1.23,7.79-2.48,1.57-.77,2.52-2.39,3.63-3.76s2.76-2.63,4.44-2.21c.57.13,1.09.46,1.67.55a2.39,2.39,0,0,0,2.22-3.48,4,4,0,0,1-.59-.92,1.46,1.46,0,0,1,.86-1.6,4,4,0,0,1,1.9-.23c1.49,0,3,.1,4.45.16,1.63.06,3.83-.37,3.92-2,.09-1.43-1.65-2.43-1.65-3.87a4.7,4.7,0,0,0,0-1.06c-.26-1-1.64-.87-2.57-.56a2.1,2.1,0,0,0-3-1.65c-1,.54-1.34,1.78-1.85,2.79-1.22,2.46-3.64,4-5.94,5.48a3.92,3.92,0,0,1-2.52.85c-.89-.13-1.62-1.28-1.06-2,.38-.48,1.21-.65,1.25-1.27.05-.78-1.26-1-1.37-1.76.93-2,3.52-2.45,5.6-3.23a12,12,0,0,0,6.09-5.15,1.61,1.61,0,0,0,.31-1.24c-.17-.6-.87-.82-1.47-.94-1.42-.31-3.24-.46-4,.79a18,18,0,0,0-.7,2.26c-.94,2.15-4,1.8-6.14,2.78a17.53,17.53,0,0,1-2.4,1.23,11.41,11.41,0,0,1-2.92-.09h0c-.75.71-1.78,1.71-2.49,2.46s-1.34,1.45-2,2.23a69.65,69.65,0,0,0-8.74,11.84q-1.26,2.28-2.36,4.67c-.72,1.59-1.4,3.22-2,4.88a20,20,0,0,0,2.06-4.07A8.08,8.08,0,0,1,324.32,81.19Z" style="opacity: 0.3; transform-origin: 340.197px 74.424px;" class="animable"></path></g><g id="elsahilbc994r"><path d="M331.29,159.14h0c.57.69,1.16,1.34,1.76,2s.95,1,1.44,1.53,1,1,1.49,1.47c.35.34.71.67,1.07,1l-.09-.38c-.82-3.59,0-8.38,3.54-9.38a7.35,7.35,0,0,0,2-.61c1.69-1.09,1.09-4.13,2.77-5.22.95-.6,2.18-.3,3.26-.56,1.94-.48,3-2.68,3.23-4.7s0-4.11.61-6.05c.94-2.93,3.84-5.52,3.06-8.49-.88-3.31-5.28-3.68-8.05-5.63-3.85-2.73-4.1-8.34-6.12-12.67-1.81-3.87-6.86-8.73-11.46-8.58a5.54,5.54,0,0,0-5.61,4.15l-.39-.15c-1.16-.36-2.53-.7-3-1.82-.52-1.31.56-2.89,0-4.18-.29-.67-.94-1.07-1.43-1.61s-.82-1.4-.35-2,1.16-.43,1.63-.85a1.14,1.14,0,0,0,.24-1.36c-.92-1.7-2.86,1-3.67,1.59a7.41,7.41,0,0,1-.64.41h0a2.54,2.54,0,0,0-.1.37c-.1.41-.18.82-.27,1.23s-.18.82-.26,1.23-.12.67-.18,1-.13.67-.19,1c0,.17-.06.32-.08.48a70.56,70.56,0,0,0,0,22.56,66,66,0,0,0,2.33,9.78c.41,1.38.89,2.75,1.41,4.1.64,1.67,1.33,3.31,2.11,4.92s1.49,3,2.34,4.52a68.17,68.17,0,0,0,3.77,5.93c1.2,1.7,2.47,3.33,3.83,4.92" style="opacity: 0.3; transform-origin: 335.077px 129.818px;" class="animable"></path></g></g><g id="freepik--Leaves--inject-42" class="animable" style="transform-origin: 355.71px 121.403px;"><path d="M313.37,68.7s1.38-13.2-10.05-19.5a29.09,29.09,0,0,0-21.81-2.81s1.19,19.11,13,24.71c0,0,5.43,3.53,14.52,1l4,5.43L315.69,75C308.53,65.19,289.36,52,289.36,52a90.16,90.16,0,0,1,14.8,9.14A104.6,104.6,0,0,1,313.37,68.7Z" style="fill: rgb(69, 90, 100); transform-origin: 298.6px 61.4731px;" id="elrgjgxoelk7" class="animable"></path><path d="M331.26,49.65s3.08-5.45-.69-10.33A13.74,13.74,0,0,0,321.66,34s-3.08,8.5,1,13.14c0,0,1.69,2.56,6.11,3.16l.91,4.14,1.76-.84C330.17,48,324,37.89,324,37.89a42.9,42.9,0,0,1,4.69,6.75A50.52,50.52,0,0,1,331.26,49.65Z" style="fill: rgb(69, 90, 100); transform-origin: 326.495px 44.22px;" id="el2nrmekr8acd" class="animable"></path><path d="M395.57,191.6s9.08-8.36,20.14-3.33A27.07,27.07,0,0,1,429.91,203s-14.92,9.73-25.66,4c0,0-5.65-2.09-8.79-10.29l-8.35.1.82-3.75c11.32-.13,33.45,7.17,33.45,7.17a84.44,84.44,0,0,0-15-6A96.48,96.48,0,0,0,395.57,191.6Z" style="fill: rgb(69, 90, 100); transform-origin: 408.51px 197.733px;" id="elame3vg1quoj" class="animable"></path></g><g id="freepik--Document--inject-42" class="animable" style="transform-origin: 272.3px 227.631px;"><polygon points="376.07 115.2 377.45 379.71 181.25 379.35 167.47 367.04 179.86 112.31 363.9 97.12 376.07 115.2" style="fill: rgb(224, 224, 224); transform-origin: 272.46px 238.415px;" id="el1mq8idfsu94" class="animable"></polygon><polygon points="363.9 97.12 363.7 366.86 167.47 367.04 169.92 97.43 363.9 97.12" style="fill: rgb(250, 250, 250); transform-origin: 265.685px 232.08px;" id="elzkyajw142hk" class="animable"></polygon><path d="M363.9,97.12l-194,.52.21-.21c-.67,75.38-1.5,168.72-2.4,269.61l-.26-.26h1.16l195.07-.15-.24.23c.26-159.52.43-267.65.44-269.74,0,2.09,0,110.22,0,269.74v.24h-.24l-195.07.2h-1.42V367c.94-100.89,1.8-194.23,2.5-269.62v-.2h.21Z" style="fill: rgb(38, 50, 56); transform-origin: 265.525px 232.21px;" id="elzslpldvc1to" class="animable"></path><path d="M198.77,162.48l65.94-.45a3.9,3.9,0,0,0,3.87-3.92h0a3.89,3.89,0,0,0-3.92-3.86l-65.94.46a3.87,3.87,0,0,0-3.86,3.91h0A3.87,3.87,0,0,0,198.77,162.48Z" style="fill: rgb(224, 224, 224); transform-origin: 231.72px 158.365px;" id="elhus42hlpplt" class="animable"></path><path d="M198.65,177.53l66-.46a3.88,3.88,0,0,0,3.86-3.91h0a3.89,3.89,0,0,0-3.91-3.87l-66,.46a3.89,3.89,0,0,0-3.86,3.92h0A3.89,3.89,0,0,0,198.65,177.53Z" style="fill: rgb(224, 224, 224); transform-origin: 231.625px 173.41px;" id="elgrqcoo78evp" class="animable"></path><path d="M198.54,192.57l65.94-.45a3.9,3.9,0,0,0,3.87-3.92h0a3.89,3.89,0,0,0-3.92-3.86l-65.94.46a3.89,3.89,0,0,0-3.87,3.91h0A3.89,3.89,0,0,0,198.54,192.57Z" style="fill: rgb(224, 224, 224); transform-origin: 231.485px 188.455px;" id="elna4lullgiv9" class="animable"></path><path d="M198.42,207.62l66-.46a3.89,3.89,0,0,0,3.86-3.92h0a3.9,3.9,0,0,0-3.92-3.86l-65.94.46a3.88,3.88,0,0,0-3.86,3.91h0A3.89,3.89,0,0,0,198.42,207.62Z" style="fill: rgb(224, 224, 224); transform-origin: 231.42px 203.5px;" id="el323twgb2bss" class="animable"></path><path d="M198.31,222.66l65.94-.46a3.87,3.87,0,0,0,3.86-3.91h0a3.87,3.87,0,0,0-3.91-3.86l-65.95.45a3.9,3.9,0,0,0-3.86,3.92h0A3.89,3.89,0,0,0,198.31,222.66Z" style="fill: rgb(224, 224, 224); transform-origin: 231.25px 218.545px;" id="elbgd5xxnvsx8" class="animable"></path><path d="M198.19,237.7l65.95-.45a3.9,3.9,0,0,0,3.86-3.92h0a3.9,3.9,0,0,0-3.92-3.86l-65.94.46a3.88,3.88,0,0,0-3.86,3.91h0A3.88,3.88,0,0,0,198.19,237.7Z" style="fill: rgb(224, 224, 224); transform-origin: 231.14px 233.585px;" id="el5lxj1nz02sw" class="animable"></path><path d="M198.08,252.75l65.94-.46a3.87,3.87,0,0,0,3.86-3.91h0a3.87,3.87,0,0,0-3.91-3.86L198,245a3.9,3.9,0,0,0-3.86,3.92h0A3.89,3.89,0,0,0,198.08,252.75Z" style="fill: rgb(224, 224, 224); transform-origin: 231.01px 248.635px;" id="elksfjkzojj7" class="animable"></path><path d="M280,236.59,346,237a3.89,3.89,0,0,0,3.91-3.87h0a3.89,3.89,0,0,0-3.86-3.91l-65.95-.41a3.89,3.89,0,0,0-3.91,3.87h0A3.89,3.89,0,0,0,280,236.59Z" style="fill: rgb(224, 224, 224); transform-origin: 313.05px 232.905px;" id="el6yj1pjo8s3q" class="animable"></path><path d="M279.7,251.63l65.95.41a3.9,3.9,0,0,0,3.91-3.87h0a3.9,3.9,0,0,0-3.87-3.91l-65.94-.4a3.87,3.87,0,0,0-3.91,3.86h0A3.87,3.87,0,0,0,279.7,251.63Z" style="fill: rgb(224, 224, 224); transform-origin: 312.7px 247.95px;" id="el5wqvvurlcj9" class="animable"></path><path d="M279.27,267.5l66,.4a3.89,3.89,0,0,0,3.91-3.86h0a3.89,3.89,0,0,0-3.87-3.91l-65.94-.41a3.89,3.89,0,0,0-3.91,3.86h0A3.89,3.89,0,0,0,279.27,267.5Z" style="fill: rgb(224, 224, 224); transform-origin: 312.32px 263.81px;" id="eliofp1keab0s" class="animable"></path><path d="M278.84,283.36l66,.41a3.9,3.9,0,0,0,3.91-3.87h0a3.89,3.89,0,0,0-3.87-3.91l-65.94-.41a3.89,3.89,0,0,0-3.91,3.87h0A3.88,3.88,0,0,0,278.84,283.36Z" style="fill: rgb(224, 224, 224); transform-origin: 311.89px 279.675px;" id="elgy5suv3hp5t" class="animable"></path><path d="M278.41,299.22l65.95.41a3.9,3.9,0,0,0,3.91-3.86h0a3.9,3.9,0,0,0-3.87-3.92l-65.94-.4a3.87,3.87,0,0,0-3.91,3.86h0A3.87,3.87,0,0,0,278.41,299.22Z" style="fill: rgb(224, 224, 224); transform-origin: 311.41px 295.54px;" id="elgoxuiprd6td" class="animable"></path><path d="M278,315.09l65.95.4a3.89,3.89,0,0,0,3.91-3.86h0a3.89,3.89,0,0,0-3.87-3.91L278,307.31a3.89,3.89,0,0,0-3.91,3.86h0A3.89,3.89,0,0,0,278,315.09Z" style="fill: rgb(224, 224, 224); transform-origin: 310.975px 311.4px;" id="ela7gkdraalsg" class="animable"></path><path d="M277.55,331l65.95.41a3.9,3.9,0,0,0,3.91-3.87h0a3.89,3.89,0,0,0-3.87-3.91l-65.94-.41a3.89,3.89,0,0,0-3.91,3.87h0A3.87,3.87,0,0,0,277.55,331Z" style="fill: rgb(224, 224, 224); transform-origin: 310.55px 327.315px;" id="elfzfbs0ovlnh" class="animable"></path><path d="M193.4,345.26l149.93.93a3.89,3.89,0,0,0,3.91-3.87h0a3.89,3.89,0,0,0-3.86-3.91l-149.93-.92a2.6,2.6,0,0,0-2.62,2.58v2.57A2.59,2.59,0,0,0,193.4,345.26Z" style="fill: rgb(224, 224, 224); transform-origin: 269.035px 341.84px;" id="elzx91xqsw06i" class="animable"></path><path d="M199.24,142.88l43.64-.3a3.89,3.89,0,0,0,3.86-3.92h0a3.89,3.89,0,0,0-3.91-3.86l-43.64.31a3.87,3.87,0,0,0-3.86,3.91h0A3.88,3.88,0,0,0,199.24,142.88Z" style="fill: rgb(224, 224, 224); transform-origin: 221.035px 138.84px;" id="ele9dllpj1cq" class="animable"></path><polygon points="247.83 93.62 250.59 90.96 283.78 90.79 285.42 93.72 247.83 93.62" style="fill: rgb(38, 50, 56); transform-origin: 266.625px 92.255px;" id="el0ir24oalsd87" class="animable"></polygon><g id="elq1m2pl5t77m"><rect x="258.95" y="82.53" width="15.32" height="37.58" style="fill: rgb(38, 50, 56); transform-origin: 266.61px 101.32px; transform: rotate(90.1deg);" class="animable"></rect></g><g id="el7yppee1s40x"><rect x="265.04" y="89.12" width="3.06" height="40.19" rx="1.25" style="fill: rgb(38, 50, 56); transform-origin: 266.57px 109.215px; transform: rotate(90.09deg);" class="animable"></rect></g><path d="M274.89,105.27h0l-16.53,0a1.45,1.45,0,0,1-1.19-.6,1.36,1.36,0,0,1-.18-1.29l4.72-12.72a8.29,8.29,0,0,1-3.55-6.55,8.5,8.5,0,0,1,8.31-8.56,8.72,8.72,0,0,1,6.31,2.34,8.19,8.19,0,0,1-1,12.83l4.49,12.73a1.4,1.4,0,0,1-.19,1.28A1.49,1.49,0,0,1,274.89,105.27Zm-8.21-28.76h-.2a7.57,7.57,0,0,0-7.3,7.53,7.3,7.3,0,0,0,3.43,6l.34.22-5,13.46a.38.38,0,0,0,.05.37.41.41,0,0,0,.34.17l16.53,0a.41.41,0,0,0,.34-.16.38.38,0,0,0,.05-.37l-4.75-13.47.35-.21a7.27,7.27,0,0,0,3.5-6.17,7.18,7.18,0,0,0-2.32-5.3A7.65,7.65,0,0,0,266.68,76.51Z" style="fill: rgb(69, 90, 100); transform-origin: 266.625px 90.4066px;" id="elfk8u4385mt" class="animable"></path><path d="M285.11,107.73a2.12,2.12,0,0,0-.37,0l-1.08,0-4,0-13.11-.08-13.11,0-4,0-1.08,0a1.88,1.88,0,0,0-.38,0,1.88,1.88,0,0,0,.38,0l1.08,0,4,.06c3.35,0,8,.09,13.11.11s9.76,0,13.11,0c1.68,0,3,0,4-.05l1.08,0A1.37,1.37,0,0,0,285.11,107.73Z" style="fill: rgb(69, 90, 100); transform-origin: 266.545px 107.735px;" id="elbxu4wo0echc" class="animable"></path><path d="M285.49,93.4a2.79,2.79,0,0,0-.38,0H284l-4,0L267,93.25l-13.12,0-4,0-1.08,0a1.88,1.88,0,0,0-.38,0l.38,0,1.08,0,4,.07c3.36,0,8,.08,13.12.1s9.75,0,13.11,0c1.68,0,3,0,4-.06.47,0,.84,0,1.09,0A1.38,1.38,0,0,0,285.49,93.4Z" style="fill: rgb(69, 90, 100); transform-origin: 266.955px 93.3346px;" id="el331kcp04aet" class="animable"></path><line x1="363.7" y1="366.86" x2="377.45" y2="379.72" style="fill: rgb(250, 250, 250); transform-origin: 370.575px 373.29px;" id="el4ihezdygbex" class="animable"></line><path d="M377.45,379.72a89.34,89.34,0,0,1-7.05-6.24,83.44,83.44,0,0,1-6.7-6.62,85.33,85.33,0,0,1,7.05,6.24A83.44,83.44,0,0,1,377.45,379.72Z" style="fill: rgb(38, 50, 56); transform-origin: 370.575px 373.29px;" id="elvle6q7dirri" class="animable"></path><path d="M190.81,374.15l.92,0,2.68,0,10.33-.05L243,374l128.27-.08-.26.26V353.83c0-55.44.05-105.63.07-142,0-18.16.07-32.85.08-43,0-5.07,0-9,.05-11.7,0-1.33,0-2.35,0-3s0-1,0-1,0,.35,0,1,0,1.71,0,3c0,2.69,0,6.63.05,11.7,0,10.17,0,24.86.08,43,0,36.34.05,86.53.08,142v20.58h-.26L243,374.32l-38.24-.07-10.33-.05-2.68,0C191.12,374.17,190.81,374.15,190.81,374.15Z" style="fill: rgb(38, 50, 56); transform-origin: 281.115px 263.77px;" id="elm57ve20276e" class="animable"></path><path d="M257.38,296a30.55,30.55,0,1,1-31-30.2A30.66,30.66,0,0,1,257.38,296Zm-45.15.72A14.61,14.61,0,1,0,226.6,281.8,14.65,14.65,0,0,0,212.23,296.71Z" style="fill: rgb(224, 224, 224); transform-origin: 226.832px 296.347px;" id="elk847wcny1bk" class="animable"></path><path d="M257.38,296a30.66,30.66,0,0,1-30.06,31.19l-.25-16a14.68,14.68,0,0,0-.47-29.35l-.26-16A30.65,30.65,0,0,1,257.38,296Z" style="fill: rgb(69, 90, 100); transform-origin: 241.862px 296.514px;" id="eldd565twywh" class="animable"></path><path d="M230.07,329.63a34.91,34.91,0,0,1-35.75-34.77l18.65-.3c.15,9.46,7.36,15.42,16.78,15.27Z" style="fill: rgb(173, 122, 200); transform-origin: 212.195px 312.1px;" id="elcoukp4r1mgt" class="animable"></path><path d="M205,295.18a53.23,53.23,0,0,1-3.94,6.17,52.24,52.24,0,0,1-4.37,5.88,52.58,52.58,0,0,1,3.94-6.17A50.84,50.84,0,0,1,205,295.18Z" style="fill: rgb(38, 50, 56); transform-origin: 200.845px 301.205px;" id="el8jlqa0k78zj" class="animable"></path><path d="M213.14,296.74c.12.08-2.49,4.07-5.82,8.91s-6.14,8.7-6.25,8.62,2.49-4.07,5.82-8.91S213,296.66,213.14,296.74Z" style="fill: rgb(38, 50, 56); transform-origin: 207.105px 305.505px;" id="elwnss0e3g1p" class="animable"></path><path d="M217.09,305a88.66,88.66,0,0,1-5.24,8.07,89.21,89.21,0,0,1-5.68,7.78,88.58,88.58,0,0,1,5.25-8.07A88,88,0,0,1,217.09,305Z" style="fill: rgb(38, 50, 56); transform-origin: 211.63px 312.925px;" id="elkn90a97zuvn" class="animable"></path><path d="M224,309.62a89.2,89.2,0,0,1-5.25,8.07,88.69,88.69,0,0,1-5.67,7.77,90.3,90.3,0,0,1,5.24-8.07A89.91,89.91,0,0,1,224,309.62Z" style="fill: rgb(38, 50, 56); transform-origin: 218.54px 317.54px;" id="elckri8v440tj" class="animable"></path><path d="M229.84,315.44a61.14,61.14,0,0,1-4.28,6.68,60.23,60.23,0,0,1-4.72,6.38,122,122,0,0,1,9-13.06Z" style="fill: rgb(38, 50, 56); transform-origin: 225.34px 321.97px;" id="elrtbho1pinff" class="animable"></path><path d="M340.93,214.61h0l-57.7-.68a1.05,1.05,0,0,1-.71-.31,1,1,0,0,1-.28-.71l.54-45.22a1,1,0,0,1,1-1,1,1,0,0,1,1,1l-.53,44.23,56.7.67a1,1,0,0,1,0,2Z" style="fill: rgb(38, 50, 56); transform-origin: 312.095px 190.65px;" id="elj39mf3pdlws" class="animable"></path><g id="el5928mzaeb4b"><rect x="291.14" y="195.58" width="7.75" height="14.23" style="fill: rgb(69, 90, 100); transform-origin: 295.015px 202.695px; transform: rotate(0.68deg);" class="animable"></rect></g><g id="elj8lt8g9k8zn"><rect x="318.04" y="195.58" width="7.75" height="14.23" style="fill: rgb(69, 90, 100); transform-origin: 321.915px 202.695px; transform: rotate(0.68deg);" class="animable"></rect></g><g id="elz685ci86bne"><rect x="304.7" y="184.18" width="7.75" height="25.87" style="fill: rgb(173, 122, 200); transform-origin: 308.575px 197.115px; transform: rotate(0.68deg);" class="animable"></rect></g><g id="el1otwf0901hx"><rect x="331.51" y="184.18" width="7.75" height="25.87" style="fill: rgb(173, 122, 200); transform-origin: 335.385px 197.115px; transform: rotate(0.68deg);" class="animable"></rect></g><path d="M290.32,189.32a1,1,0,0,1-.74-.32,1,1,0,0,1,.06-1.41l17.79-16.29a1,1,0,0,1,1.29-.06L319.94,180l24-17.09a1,1,0,1,1,1.16,1.63l-24.58,17.52a1,1,0,0,1-1.19,0l-11.14-8.69L291,189.06A1,1,0,0,1,290.32,189.32Z" style="fill: rgb(69, 90, 100); transform-origin: 317.419px 176.022px;" id="el5h0urawwg2e" class="animable"></path><path d="M325.53,172.84s-5.19-1.68-4.12-9.19,5.4-10.42,5.4-10.42,4.89,5.11,4.91,11.59-4.29,8-4.29,8l-.88-12.58Z" style="fill: rgb(69, 90, 100); transform-origin: 326.492px 163.035px;" id="ellfrwv5okyo9" class="animable"></path><path d="M333.45,172.89s-2.16-5.33,4.64-9.55,12.06-2.69,12.06-2.69-.81,7.41-6,11.81-9.71,1.71-9.71,1.71l10-7.94Z" style="fill: rgb(69, 90, 100); transform-origin: 341.637px 167.682px;" id="elm9kjpcuy6g" class="animable"></path><path d="M346.49,141.72H332.92a4.74,4.74,0,0,1-4.74-4.74h0a4.74,4.74,0,0,1,4.74-4.73h13.57a4.73,4.73,0,0,1,4.73,4.73h0A4.74,4.74,0,0,1,346.49,141.72Z" style="fill: rgb(224, 224, 224); transform-origin: 339.7px 136.985px;" id="elbt9nagf4jdo" class="animable"></path></g><g id="freepik--Trees--inject-42" class="animable" style="transform-origin: 372.661px 396.634px;"><g id="elb28pfb791cn"><rect x="379.58" y="439.95" width="12.61" height="30.02" rx="1.07" style="fill: rgb(111, 68, 57); transform-origin: 385.885px 454.96px; transform: rotate(180deg);" class="animable"></rect></g><path d="M433.68,439.2s-.62-.41.75-2.2a1.74,1.74,0,0,0,.43-1.45,1.38,1.38,0,0,0-1.93-.9,15.39,15.39,0,0,1-9,.82,1.43,1.43,0,0,1-.29-2.74c2.83-1.15,6.15-2.79,6.84-4.4a2.34,2.34,0,0,0,.24-1.41,1.29,1.29,0,0,1,.65-1.54,2.68,2.68,0,0,0,1.34-1c.58-1-.75-2.15-1.7-2.79a1.36,1.36,0,0,1-.61-1.26,3.6,3.6,0,0,0-.23-1.59c-.33-.9-5-2-8.69-2.82a1.42,1.42,0,0,1-.71-2.39,6.41,6.41,0,0,0,.8-1.11,1.42,1.42,0,0,1,1.18-.71c1.77-.06,5.83-.41,7-2.33,1.49-2.47-1-3.16-5.21-5.22-2.81-1.38-7.89-5.27-11-7.7a1.43,1.43,0,0,1,.61-2.53,10.83,10.83,0,0,0,4.27-1.47,2.46,2.46,0,0,0,.65-.74,1.44,1.44,0,0,1,1.23-.82c4.76-.08,2.84-3.11,2.84-3.11a32,32,0,0,1-12.65-7.48,1.42,1.42,0,0,1,.52-2.37,13.47,13.47,0,0,0,4.43-2.39c.67-.62.77-1.11.58-1.48a1.31,1.31,0,0,1,.6-1.88c1.71-.63,3-1.72.43-3.38-1.77-1.14-4.07-2.48-6.16-3.65a1.43,1.43,0,0,1,.5-2.66l.95-.16c5.21-2.34,0-5.78,0-5.78A71,71,0,0,1,402,348.71a1.43,1.43,0,0,1,1-2.5,3.53,3.53,0,0,0,1-.13c2.24-.69-2.48-3.44-2.48-3.44s2.36.69,3.35,0-2.6-3.85-2.6-3.85c-4.71-3.06-10.38-10.48-13.55-14.89a1.41,1.41,0,0,0-2.31,0c-3.18,4.41-8.85,11.83-13.55,14.89,0,0-3.6,3.16-2.61,3.85s3.35,0,3.35,0-4.71,2.75-2.48,3.44a3.58,3.58,0,0,0,1,.13,1.43,1.43,0,0,1,1,2.5,71.53,71.53,0,0,1-10.34,7.82s-5.22,3.44,0,5.78l.95.16a1.43,1.43,0,0,1,.5,2.66c-2.09,1.17-4.39,2.51-6.17,3.65-2.6,1.66-1.27,2.75.44,3.38a1.31,1.31,0,0,1,.59,1.88c-.19.37-.09.86.58,1.48a13.47,13.47,0,0,0,4.43,2.39,1.43,1.43,0,0,1,.53,2.37A32.19,32.19,0,0,1,352,387.76s-1.93,3,2.84,3.11a1.44,1.44,0,0,1,1.22.82,2.69,2.69,0,0,0,.66.74A10.78,10.78,0,0,0,361,393.9a1.43,1.43,0,0,1,.62,2.53c-3.07,2.43-8.15,6.32-11,7.7-4.22,2.06-6.7,2.75-5.21,5.22,1.16,1.92,5.21,2.27,7,2.33a1.39,1.39,0,0,1,1.18.71,6.52,6.52,0,0,0,.81,1.11,1.43,1.43,0,0,1-.71,2.39c-3.72.78-8.36,1.92-8.69,2.82a3.33,3.33,0,0,0-.23,1.59,1.34,1.34,0,0,1-.62,1.26c-.95.64-2.28,1.78-1.7,2.79a2.71,2.71,0,0,0,1.35,1,1.29,1.29,0,0,1,.64,1.54,2.36,2.36,0,0,0,.25,1.41c.69,1.61,4,3.25,6.83,4.4a1.43,1.43,0,0,1-.28,2.74,15.38,15.38,0,0,1-9-.82,1.38,1.38,0,0,0-1.93.9,1.71,1.71,0,0,0,.43,1.45c1.36,1.79.74,2.2.74,2.2s-3.1-2.34-1.74,1.24c.77,2,3.4,3.6,5.54,4.59a1.43,1.43,0,0,1,.36,2.35,1.32,1.32,0,0,0-.19,1.72c1.24,2.21,6.46,4.82,12.16,5.37a36,36,0,0,0,9.06-.59,1.37,1.37,0,0,1,1.5,1.75c-.13.57.15,1.14,1.23,1.59,2.07.87,4.3.11,5.82-.7a1.42,1.42,0,0,1,2,.65c.25.59.84,1,2.14.44a18.14,18.14,0,0,0,3.82-2.21,1.43,1.43,0,0,1,2.19.71c.46,1.29,1.21,2.58,2.24,1.89,1,.69,1.78-.6,2.24-1.89a1.44,1.44,0,0,1,2.2-.71,18.31,18.31,0,0,0,3.81,2.21c1.3.52,1.89.15,2.15-.44a1.41,1.41,0,0,1,2-.65c1.53.81,3.76,1.57,5.82.7,1.08-.45,1.37-1,1.24-1.59a1.36,1.36,0,0,1,1.5-1.75,35.93,35.93,0,0,0,9.05.59c5.71-.55,10.92-3.16,12.16-5.37a1.3,1.3,0,0,0-.19-1.72,1.44,1.44,0,0,1,.36-2.35c2.14-1,4.77-2.57,5.54-4.59C436.79,436.86,433.68,439.2,433.68,439.2Z" style="fill: rgb(69, 90, 100); transform-origin: 387.601px 390.731px;" id="el57ma3ihq0zm" class="animable"></path><path d="M405.72,357l-.2-.09A.72.72,0,0,1,405.72,357Z" id="elc9xqu8nsa7" class="animable" style="transform-origin: 405.62px 356.955px;"></path><g id="elf8qtc7yu2xt"><g style="opacity: 0.1; transform-origin: 392.15px 340.472px;" class="animable"><path d="M396.37,342.84,394.3,342a1.46,1.46,0,0,0-1.46.25,3.54,3.54,0,0,1-4.16.23,11.92,11.92,0,0,1-4-3.65,1.42,1.42,0,0,0-1.84-.42c-1.31.71-3.34,1.59-3.64.37a2.2,2.2,0,0,1,1.36-2.54,1.12,1.12,0,0,0-.11,1c.19.33.62.32,1,.23a5.41,5.41,0,0,0,1.7-.76,1.48,1.48,0,0,1,2.06.27,11.66,11.66,0,0,0,3.66,3.12,3.31,3.31,0,0,0,2.58.6,1.47,1.47,0,0,0,.64-.45,1.36,1.36,0,0,1,1.85-.2,7.53,7.53,0,0,0,3.81,1.44c.45,0,1-.08,1.12-.58a1.1,1.1,0,0,0-.27-.8,9.39,9.39,0,0,0-2.32-2.38,13.36,13.36,0,0,0,6.73,2.55l2.1.28a.48.48,0,0,1-.14.58c-1,.69-3.35,0-3.35,0s4.72,2.76,2.48,3.44-6.7-1.65-6.7-1.65l.55.53Z" id="el2kflceh60d" class="animable" style="transform-origin: 392.15px 340.472px;"></path></g></g><g id="elrayhkbmpyl"><g style="opacity: 0.1; transform-origin: 379.572px 358.878px;" class="animable"><path d="M370.07,361.31l4.31-1.56a1.4,1.4,0,0,1,1.74.66,3.75,3.75,0,0,0,3.74,2.16,3,3,0,0,0,2.88-1.65,1.41,1.41,0,0,1,1.93-.64,12.18,12.18,0,0,0,7.3,1s1-.13.76-1.75a3.31,3.31,0,0,0,4.27.59c2.7-1.43.36-3.83.36-3.83l-.36-.19a1.89,1.89,0,0,1,.28,1.55c-.3.71-1.22.66-1.9.44a14.8,14.8,0,0,1-5.21-2.92,5.63,5.63,0,0,1,1.08,1.64,2.05,2.05,0,0,1-.19,1.93,2.09,2.09,0,0,1-1.64.66,9.75,9.75,0,0,1-8-3.64c0,.92.19,1.84.16,2.76a2.35,2.35,0,0,1-1.23,2.21c-.94.33-1.9-.55-2.32-1.55a8.62,8.62,0,0,1-.32-1,1.41,1.41,0,0,0-2.17-.82,12,12,0,0,1-3.36,1.71,3.38,3.38,0,0,1-1.57.2,1.56,1.56,0,0,1-1.22-1,1.21,1.21,0,0,1,.39-1.33c-2.3,1.05-7.61,2.91-8.66.31-.56,1.12-.44,2.48,2,3.59,0,0,4.43.86,6.39.14l-1.39.74,1.7-.37Z" id="elozm7gzoyft" class="animable" style="transform-origin: 379.572px 358.878px;"></path></g></g><g id="el0rwna8q6gt6"><g style="opacity: 0.1; transform-origin: 390.363px 376.291px;" class="animable"><path d="M409.91,378.25a10.74,10.74,0,0,1-3.15-1,1.38,1.38,0,0,0-1.57.21,2.57,2.57,0,0,1-2.22.63,5.1,5.1,0,0,1-2-.93,1.39,1.39,0,0,0-1.72.16,4.26,4.26,0,0,1-2.57,1.06,4.22,4.22,0,0,1-2.71-.88,1.49,1.49,0,0,0-1.74-.07c-3.41,2.32-7.34,3.92-11.29,3.39a3.08,3.08,0,0,1-2.16-1,1.52,1.52,0,0,1-.29-.69,1.42,1.42,0,0,0-1.65-1.12,12.93,12.93,0,0,1-5.74-.05,5.37,5.37,0,0,1-4.15-6.3,6.69,6.69,0,0,0,.68,1.9,2.59,2.59,0,0,0,1.48,1,16.86,16.86,0,0,0,11.15-.17,1.37,1.37,0,0,1,1.79.88,2.6,2.6,0,0,0,1.15,1.56,5.25,5.25,0,0,0,3.61.19,15.18,15.18,0,0,0,3.88-1.15,7.17,7.17,0,0,0,1.87-1.33,1.41,1.41,0,0,1,2.13.07,4.62,4.62,0,0,0,.75.78,2.32,2.32,0,0,0,2.66.34,1.7,1.7,0,0,0,.62-.77,1.46,1.46,0,0,1,1.93-.7,17.13,17.13,0,0,0,3.45,1.11,1.39,1.39,0,0,0,1.42-.25,1.28,1.28,0,0,0-.09-1.53,1.67,1.67,0,0,0-.43-.41,15.62,15.62,0,0,0,8.88,1.46l0,.55a20.06,20.06,0,0,1-5.09,1.95S409.22,377.54,409.91,378.25Z" id="elv7g6gkz5p6f" class="animable" style="transform-origin: 390.363px 376.291px;"></path></g></g><g id="elt5ltgggdhej"><g style="opacity: 0.1; transform-origin: 381.735px 393.805px;" class="animable"><path d="M361.8,397.14a24.2,24.2,0,0,0,7.26-1.86,1.46,1.46,0,0,1,1.31.15,12.8,12.8,0,0,0,13.5.07,1.43,1.43,0,0,1,1.62.09,9.81,9.81,0,0,0,11,.52,1.51,1.51,0,0,1,1.35-.15,9.08,9.08,0,0,0,5.48.86,5,5,0,0,0,4-4.77,6.55,6.55,0,0,1-5,2.41,6.42,6.42,0,0,1-4-1.45,1.49,1.49,0,0,0-1.95.06,7,7,0,0,1-5.05,1.82,7.15,7.15,0,0,1-4.83-2.52,1.45,1.45,0,0,0-1.9-.31,12.73,12.73,0,0,1-9,2.14,5,5,0,0,1-2.82-1.19,3.09,3.09,0,0,1-.68-1,1.42,1.42,0,0,0-1.94-.82,13.22,13.22,0,0,1-14-1.13l0,.09a2.45,2.45,0,0,0,.71.85,10.77,10.77,0,0,0,4.27,1.47,1.42,1.42,0,0,1,.61,2.52c-.77.61-1.66,1.31-2.61,2A13.12,13.12,0,0,0,361.8,397.14Z" id="eli5u28sznga" class="animable" style="transform-origin: 381.735px 393.805px;"></path></g></g><g id="el2oaa0l3k9ke"><g style="opacity: 0.1; transform-origin: 397.126px 411.862px;" class="animable"><path d="M425.61,409.93a19.77,19.77,0,0,1-2.87.29,1.42,1.42,0,0,0-1.19.71,4.78,4.78,0,0,1-4.74,2.61s1.85.31,4.17.79a9.23,9.23,0,0,1-7.81-.57,1.37,1.37,0,0,0-1.57.22,12.45,12.45,0,0,1-15.28.51,1.4,1.4,0,0,0-1.65,0,12.59,12.59,0,0,1-14.81.14,1.37,1.37,0,0,0-1.63,0,11.16,11.16,0,0,1-8.32,2.5,9.05,9.05,0,0,1-4.25-1.85,1.44,1.44,0,0,1,1.25-2.52A13.54,13.54,0,0,0,378,410.67a1.41,1.41,0,0,1,2,.31,3.18,3.18,0,0,0,1.22.91,6.66,6.66,0,0,0,2.91.31c3.6-.19,7.39-.72,10.38-2.86a1.42,1.42,0,0,1,1.82.18,9.16,9.16,0,0,0,7.36,2.74,9.59,9.59,0,0,0,6.8-4.29,1.45,1.45,0,0,1,1.8-.5,18.83,18.83,0,0,0,16.84-.94l-2.7,3A1.39,1.39,0,0,1,425.61,409.93Z" id="el45p5enq5zht" class="animable" style="transform-origin: 397.126px 411.862px;"></path></g></g><g id="elqjrzhvlfzd"><g style="opacity: 0.1; transform-origin: 375.169px 431.081px;" class="animable"><path d="M402.58,428.68a1.43,1.43,0,0,0-1.79.76,4,4,0,0,1-1.44,1.78,6.16,6.16,0,0,1-3.34.91,14.24,14.24,0,0,1-8.87-2.8,1.39,1.39,0,0,0-1.8.15,10.46,10.46,0,0,1-15.4-.29,1.46,1.46,0,0,0-1.43-.45,30,30,0,0,1-22.71-3.58l-1.07.59a3,3,0,0,0,.27,1.13c1.24,2.89,11.05,5.91,11.05,5.91a21.87,21.87,0,0,1-2.54.81c1.69.51,3.16.93,4.08,1.23a10,10,0,0,0,9.14-1.41,1.42,1.42,0,0,1,1.87.08,11.78,11.78,0,0,0,16.76-.08,1.41,1.41,0,0,1,2,0A11.71,11.71,0,0,0,394.8,437a7.66,7.66,0,0,0,7.11-4.34,1.42,1.42,0,0,1,1.57-.83,5.58,5.58,0,0,0,.59.1c1.82.24,2.14-2.52.33-2.83A12.43,12.43,0,0,1,402.58,428.68Z" id="elhfz6wlk1jpp" class="animable" style="transform-origin: 375.169px 431.081px;"></path></g></g><g id="elkkzgs7k8jh"><g style="opacity: 0.3; transform-origin: 387.601px 390.731px;" class="animable"><path d="M433.68,439.2s-.62-.41.75-2.2a1.74,1.74,0,0,0,.43-1.45,1.38,1.38,0,0,0-1.93-.9,15.39,15.39,0,0,1-9,.82,1.43,1.43,0,0,1-.29-2.74c2.83-1.15,6.15-2.79,6.84-4.4a2.34,2.34,0,0,0,.24-1.41,1.29,1.29,0,0,1,.65-1.54,2.68,2.68,0,0,0,1.34-1c.58-1-.75-2.15-1.7-2.79a1.36,1.36,0,0,1-.61-1.26,3.6,3.6,0,0,0-.23-1.59c-.33-.9-5-2-8.69-2.82a1.42,1.42,0,0,1-.71-2.39,6.41,6.41,0,0,0,.8-1.11,1.42,1.42,0,0,1,1.18-.71c1.77-.06,5.83-.41,7-2.33,1.49-2.47-1-3.16-5.21-5.22-2.81-1.38-7.89-5.27-11-7.7a1.43,1.43,0,0,1,.61-2.53,10.83,10.83,0,0,0,4.27-1.47,2.46,2.46,0,0,0,.65-.74,1.44,1.44,0,0,1,1.23-.82c4.76-.08,2.84-3.11,2.84-3.11a32,32,0,0,1-12.65-7.48,1.42,1.42,0,0,1,.52-2.37,13.47,13.47,0,0,0,4.43-2.39c.67-.62.77-1.11.58-1.48a1.31,1.31,0,0,1,.6-1.88c1.71-.63,3-1.72.43-3.38-1.77-1.14-4.07-2.48-6.16-3.65a1.43,1.43,0,0,1,.5-2.66l.95-.16c5.21-2.34,0-5.78,0-5.78A71,71,0,0,1,402,348.71a1.43,1.43,0,0,1,1-2.5,3.53,3.53,0,0,0,1-.13c2.24-.69-2.48-3.44-2.48-3.44s2.36.69,3.35,0-2.6-3.85-2.6-3.85c-4.71-3.06-10.38-10.48-13.55-14.89a1.41,1.41,0,0,0-2.31,0c-3.18,4.41-8.85,11.83-13.55,14.89,0,0-3.6,3.16-2.61,3.85s3.35,0,3.35,0-4.71,2.75-2.48,3.44a3.58,3.58,0,0,0,1,.13,1.43,1.43,0,0,1,1,2.5,71.53,71.53,0,0,1-10.34,7.82s-5.22,3.44,0,5.78l.95.16a1.43,1.43,0,0,1,.5,2.66c-2.09,1.17-4.39,2.51-6.17,3.65-2.6,1.66-1.27,2.75.44,3.38a1.31,1.31,0,0,1,.59,1.88c-.19.37-.09.86.58,1.48a13.47,13.47,0,0,0,4.43,2.39,1.43,1.43,0,0,1,.53,2.37A32.19,32.19,0,0,1,352,387.76s-1.93,3,2.84,3.11a1.44,1.44,0,0,1,1.22.82,2.69,2.69,0,0,0,.66.74A10.78,10.78,0,0,0,361,393.9a1.43,1.43,0,0,1,.62,2.53c-3.07,2.43-8.15,6.32-11,7.7-4.22,2.06-6.7,2.75-5.21,5.22,1.16,1.92,5.21,2.27,7,2.33a1.39,1.39,0,0,1,1.18.71,6.52,6.52,0,0,0,.81,1.11,1.43,1.43,0,0,1-.71,2.39c-3.72.78-8.36,1.92-8.69,2.82a3.33,3.33,0,0,0-.23,1.59,1.34,1.34,0,0,1-.62,1.26c-.95.64-2.28,1.78-1.7,2.79a2.71,2.71,0,0,0,1.35,1,1.29,1.29,0,0,1,.64,1.54,2.36,2.36,0,0,0,.25,1.41c.69,1.61,4,3.25,6.83,4.4a1.43,1.43,0,0,1-.28,2.74,15.38,15.38,0,0,1-9-.82,1.38,1.38,0,0,0-1.93.9,1.71,1.71,0,0,0,.43,1.45c1.36,1.79.74,2.2.74,2.2s-3.1-2.34-1.74,1.24c.77,2,3.4,3.6,5.54,4.59a1.43,1.43,0,0,1,.36,2.35,1.32,1.32,0,0,0-.19,1.72c1.24,2.21,6.46,4.82,12.16,5.37a36,36,0,0,0,9.06-.59,1.37,1.37,0,0,1,1.5,1.75c-.13.57.15,1.14,1.23,1.59,2.07.87,4.3.11,5.82-.7a1.42,1.42,0,0,1,2,.65c.25.59.84,1,2.14.44a18.14,18.14,0,0,0,3.82-2.21,1.43,1.43,0,0,1,2.19.71c.46,1.29,1.21,2.58,2.24,1.89,1,.69,1.78-.6,2.24-1.89a1.44,1.44,0,0,1,2.2-.71,18.31,18.31,0,0,0,3.81,2.21c1.3.52,1.89.15,2.15-.44a1.41,1.41,0,0,1,2-.65c1.53.81,3.76,1.57,5.82.7,1.08-.45,1.37-1,1.24-1.59a1.36,1.36,0,0,1,1.5-1.75,35.93,35.93,0,0,0,9.05.59c5.71-.55,10.92-3.16,12.16-5.37a1.3,1.3,0,0,0-.19-1.72,1.44,1.44,0,0,1,.36-2.35c2.14-1,4.77-2.57,5.54-4.59C436.79,436.86,433.68,439.2,433.68,439.2Z" id="el22u763rptxc" class="animable" style="transform-origin: 387.601px 390.731px;"></path></g></g><g id="elu84n091qrss"><rect x="337.51" y="448.99" width="8.81" height="20.98" rx="1.07" style="fill: rgb(111, 68, 57); transform-origin: 341.915px 459.48px; transform: rotate(180deg);" class="animable"></rect></g><path d="M375.31,448.29s-.43-.29.52-1.54a1.18,1.18,0,0,0,.3-1,1,1,0,0,0-1.35-.63,10.84,10.84,0,0,1-6.3.58,1,1,0,0,1-.2-1.92c2-.8,4.3-1.95,4.78-3.07a1.72,1.72,0,0,0,.17-1,.9.9,0,0,1,.45-1.08,1.89,1.89,0,0,0,.94-.72c.41-.71-.52-1.5-1.18-2a.93.93,0,0,1-.44-.88,2.2,2.2,0,0,0-.16-1.11c-.23-.63-3.47-1.42-6.07-2a1,1,0,0,1-.5-1.67,4.56,4.56,0,0,0,.57-.77,1,1,0,0,1,.82-.5c1.24,0,4.07-.29,4.88-1.63,1-1.72-.69-2.21-3.64-3.65a56.58,56.58,0,0,1-7.66-5.38,1,1,0,0,1,.43-1.76,7.61,7.61,0,0,0,3-1,2,2,0,0,0,.46-.51,1,1,0,0,1,.85-.58c3.33,0,2-2.17,2-2.17a22.38,22.38,0,0,1-8.83-5.23,1,1,0,0,1,.36-1.65,9.3,9.3,0,0,0,3.1-1.68c.47-.43.54-.77.4-1a.91.91,0,0,1,.42-1.31c1.2-.44,2.12-1.2.3-2.37-1.24-.79-2.84-1.72-4.3-2.54a1,1,0,0,1,.35-1.86l.66-.11c3.64-1.64,0-4,0-4a49,49,0,0,1-7.22-5.47,1,1,0,0,1,.7-1.75,2.27,2.27,0,0,0,.71-.08c1.56-.48-1.73-2.41-1.73-2.41s1.64.48,2.34,0-1.82-2.69-1.82-2.69c-3.29-2.13-7.25-7.32-9.47-10.4a1,1,0,0,0-1.62,0c-2.21,3.08-6.17,8.27-9.46,10.4,0,0-2.52,2.21-1.82,2.69s2.34,0,2.34,0-3.3,1.93-1.73,2.41a2.24,2.24,0,0,0,.7.08,1,1,0,0,1,.71,1.75,50.11,50.11,0,0,1-7.22,5.47s-3.65,2.4,0,4l.66.11a1,1,0,0,1,.35,1.86c-1.46.82-3.07,1.75-4.31,2.54-1.82,1.17-.89,1.93.31,2.37a.92.92,0,0,1,.41,1.31c-.13.26-.06.6.41,1a9.26,9.26,0,0,0,3.09,1.68,1,1,0,0,1,.37,1.65,22.51,22.51,0,0,1-8.84,5.23s-1.34,2.12,2,2.17a1,1,0,0,1,.86.58,1.79,1.79,0,0,0,.46.51,7.49,7.49,0,0,0,3,1,1,1,0,0,1,.43,1.76,57.85,57.85,0,0,1-7.66,5.38c-2.95,1.44-4.68,1.93-3.64,3.65.8,1.34,3.64,1.59,4.87,1.63a1,1,0,0,1,.83.5,4.45,4.45,0,0,0,.56.77,1,1,0,0,1-.5,1.67c-2.59.55-5.84,1.34-6.07,2a2.45,2.45,0,0,0-.16,1.11.94.94,0,0,1-.43.88c-.66.45-1.59,1.24-1.18,2a1.86,1.86,0,0,0,.93.72.92.92,0,0,1,.46,1.08,1.57,1.57,0,0,0,.17,1c.48,1.12,2.8,2.27,4.77,3.07a1,1,0,0,1-.2,1.92,10.85,10.85,0,0,1-6.3-.58,1,1,0,0,0-1.35.63,1.21,1.21,0,0,0,.3,1c.95,1.25.52,1.54.52,1.54s-2.17-1.63-1.21.87c.54,1.41,2.37,2.51,3.87,3.2a1,1,0,0,1,.25,1.64.92.92,0,0,0-.13,1.21c.86,1.54,4.51,3.36,8.49,3.75a25.34,25.34,0,0,0,6.33-.41,1,1,0,0,1,1.05,1.22c-.09.4.11.79.86,1.11a4.86,4.86,0,0,0,4.07-.49,1,1,0,0,1,1.37.46c.18.41.59.67,1.5.3a12.69,12.69,0,0,0,2.66-1.54,1,1,0,0,1,1.54.49c.32.9.84,1.81,1.56,1.33.73.48,1.25-.43,1.57-1.33a1,1,0,0,1,1.53-.49,12.78,12.78,0,0,0,2.67,1.54c.91.37,1.32.11,1.49-.3a1,1,0,0,1,1.38-.46,4.84,4.84,0,0,0,4.06.49c.76-.32,1-.71.87-1.11a1,1,0,0,1,1-1.22A25.37,25.37,0,0,0,364,459c4-.39,7.63-2.21,8.5-3.75a.93.93,0,0,0-.13-1.21,1,1,0,0,1,.25-1.64c1.49-.69,3.33-1.79,3.87-3.2C377.48,446.66,375.31,448.29,375.31,448.29Z" style="fill: rgb(69, 90, 100); transform-origin: 343.132px 414.45px;" id="ell3ag4xchit" class="animable"></path><path d="M355.77,390.82l-.13-.06A.31.31,0,0,1,355.77,390.82Z" id="el629c47wiueg" class="animable" style="transform-origin: 355.705px 390.79px;"></path><g id="ellv45dm1bn4d"><g style="opacity: 0.1; transform-origin: 346.261px 379.359px;" class="animable"><path d="M349.24,381l-1.45-.57a1,1,0,0,0-1,.17,2.48,2.48,0,0,1-2.91.16,8.21,8.21,0,0,1-2.82-2.55,1,1,0,0,0-1.29-.29c-.92.5-2.33,1.11-2.54.26a1.54,1.54,0,0,1,.95-1.78.82.82,0,0,0-.08.71c.13.23.43.22.67.16a3.56,3.56,0,0,0,1.19-.54,1,1,0,0,1,1.44.2,8.08,8.08,0,0,0,2.56,2.17,2.29,2.29,0,0,0,1.8.43,1.07,1.07,0,0,0,.45-.32,1,1,0,0,1,1.29-.14,5.28,5.28,0,0,0,2.66,1c.32,0,.73-.06.79-.41a.85.85,0,0,0-.19-.56,6.73,6.73,0,0,0-1.62-1.66,9.3,9.3,0,0,0,4.69,1.78l1.47.2a.35.35,0,0,1-.09.41c-.7.48-2.34,0-2.34,0s3.29,1.92,1.73,2.4-4.68-1.15-4.68-1.15l.38.36Z" id="elfko2bhk4igv" class="animable" style="transform-origin: 346.261px 379.359px;"></path></g></g><g id="elmb9quif412"><g style="opacity: 0.1; transform-origin: 337.495px 392.186px;" class="animable"><path d="M330.86,393.86l3-1.09a1,1,0,0,1,1.22.47,2.6,2.6,0,0,0,2.61,1.51,2.12,2.12,0,0,0,2-1.15,1,1,0,0,1,1.35-.45,8.45,8.45,0,0,0,5.1.69s.7-.09.53-1.22a2.33,2.33,0,0,0,3,.41c1.88-1,.24-2.68.24-2.68l-.25-.13a1.37,1.37,0,0,1,.2,1.08c-.21.5-.86.46-1.33.31a10.27,10.27,0,0,1-3.64-2,4,4,0,0,1,.75,1.15,1.43,1.43,0,0,1-.13,1.35,1.48,1.48,0,0,1-1.15.46,6.8,6.8,0,0,1-5.57-2.55c0,.65.13,1.29.11,1.93a1.66,1.66,0,0,1-.85,1.55c-.66.23-1.34-.39-1.63-1.09a5.39,5.39,0,0,1-.22-.68,1,1,0,0,0-1.52-.57,8.62,8.62,0,0,1-2.34,1.19,2.46,2.46,0,0,1-1.1.14,1.1,1.1,0,0,1-.86-.7.84.84,0,0,1,.28-.93c-1.61.73-5.32,2-6.05.22-.39.78-.31,1.73,1.42,2.51,0,0,3.1.6,4.47.1l-1,.51,1.19-.26Z" id="elkknib695kmq" class="animable" style="transform-origin: 337.495px 392.186px;"></path></g></g><g id="elzw332h9i6to"><g style="opacity: 0.1; transform-origin: 345.073px 404.331px;" class="animable"><path d="M358.7,405.7a7.24,7.24,0,0,1-2.2-.7.94.94,0,0,0-1.09.15,1.85,1.85,0,0,1-1.56.44,3.55,3.55,0,0,1-1.37-.66,1,1,0,0,0-1.2.12,2.86,2.86,0,0,1-3.69.13,1,1,0,0,0-1.22-.05c-2.38,1.62-5.13,2.73-7.88,2.36a2.15,2.15,0,0,1-1.52-.72,1.09,1.09,0,0,1-.2-.48,1,1,0,0,0-1.15-.78,9.19,9.19,0,0,1-4,0,3.75,3.75,0,0,1-2.9-4.41,4.82,4.82,0,0,0,.47,1.33,1.81,1.81,0,0,0,1,.68A11.76,11.76,0,0,0,338,403a1,1,0,0,1,1.26.62,1.87,1.87,0,0,0,.8,1.09,3.63,3.63,0,0,0,2.52.13,10.76,10.76,0,0,0,2.72-.8,5.15,5.15,0,0,0,1.3-.93,1,1,0,0,1,1.49,0,3.07,3.07,0,0,0,.53.55,1.6,1.6,0,0,0,1.85.24,1.13,1.13,0,0,0,.43-.53,1,1,0,0,1,1.36-.5,11.41,11.41,0,0,0,2.4.78,1,1,0,0,0,1-.18.9.9,0,0,0-.06-1.07,1.38,1.38,0,0,0-.31-.28,11,11,0,0,0,6.21,1l0,.39a14.38,14.38,0,0,1-3.56,1.36S358.22,405.2,358.7,405.7Z" id="elqzoriapb3uq" class="animable" style="transform-origin: 345.073px 404.331px;"></path></g></g><g id="elwem2lnwo"><g style="opacity: 0.1; transform-origin: 338.98px 416.549px;" class="animable"><path d="M325.09,418.9a16.84,16.84,0,0,0,5.07-1.3,1,1,0,0,1,.92.11,9,9,0,0,0,9.43.05,1,1,0,0,1,1.13.06,6.84,6.84,0,0,0,7.68.36,1,1,0,0,1,.94-.1,6.43,6.43,0,0,0,3.83.6,3.51,3.51,0,0,0,2.77-3.34,4.62,4.62,0,0,1-3.48,1.69,4.47,4.47,0,0,1-2.77-1,1,1,0,0,0-1.37,0,4.86,4.86,0,0,1-3.52,1.27,5,5,0,0,1-3.38-1.76,1,1,0,0,0-1.33-.22,8.91,8.91,0,0,1-6.29,1.5,3.62,3.62,0,0,1-2-.83,2.39,2.39,0,0,1-.48-.72,1,1,0,0,0-1.34-.57,9.24,9.24,0,0,1-9.8-.79l0,.06a1.71,1.71,0,0,0,.49.6,7.61,7.61,0,0,0,3,1,1,1,0,0,1,.43,1.77c-.53.42-1.15.91-1.82,1.42A8.71,8.71,0,0,0,325.09,418.9Z" id="el1dadpipbv3c" class="animable" style="transform-origin: 338.98px 416.549px;"></path></g></g><g id="eln4k6fpq4dtf"><g style="opacity: 0.1; transform-origin: 349.698px 429.178px;" class="animable"><path d="M369.67,427.84a13.13,13.13,0,0,1-2,.2,1,1,0,0,0-.83.5,3.34,3.34,0,0,1-3.32,1.82s1.3.22,2.92.56a6.46,6.46,0,0,1-5.46-.41,1,1,0,0,0-1.09.16,8.71,8.71,0,0,1-10.68.36,1,1,0,0,0-1.16,0,8.8,8.8,0,0,1-10.34.1,1,1,0,0,0-1.14,0,7.8,7.8,0,0,1-5.82,1.75,6.19,6.19,0,0,1-3-1.29,1,1,0,0,1,.87-1.76,9.44,9.44,0,0,0,7.76-1.5,1,1,0,0,1,1.36.22,2.16,2.16,0,0,0,.86.64,4.49,4.49,0,0,0,2,.21c2.52-.13,5.16-.5,7.25-2a1,1,0,0,1,1.27.12,6.41,6.41,0,0,0,5.14,1.92,6.73,6.73,0,0,0,4.76-3,1,1,0,0,1,1.26-.35,13.15,13.15,0,0,0,11.76-.66l-1.89,2.07A1,1,0,0,1,369.67,427.84Z" id="elvtocxhjxm8r" class="animable" style="transform-origin: 349.698px 429.178px;"></path></g></g><g id="elfybec66sw7k"><g style="opacity: 0.1; transform-origin: 334.461px 442.592px;" class="animable"><path d="M353.58,440.94a1,1,0,0,0-1.25.53,2.81,2.81,0,0,1-1,1.25,4.4,4.4,0,0,1-2.34.63,9.91,9.91,0,0,1-6.2-2,1,1,0,0,0-1.25.11,7.32,7.32,0,0,1-10.77-.21,1,1,0,0,0-1-.31,20.93,20.93,0,0,1-15.87-2.5l-.75.41a2.17,2.17,0,0,0,.19.79c.87,2,7.72,4.13,7.72,4.13a14.88,14.88,0,0,1-1.78.57c1.19.36,2.21.65,2.86.86a7,7,0,0,0,6.38-1,1,1,0,0,1,1.31.06,8.22,8.22,0,0,0,11.71-.06,1,1,0,0,1,1.39,0,8.1,8.1,0,0,0,5.21,2.54,5.36,5.36,0,0,0,5-3,1,1,0,0,1,1.1-.58l.41.07a1,1,0,0,0,.23-2A9.44,9.44,0,0,1,353.58,440.94Z" id="el8bluvirlkzg" class="animable" style="transform-origin: 334.461px 442.592px;"></path></g></g></g><g id="freepik--Character--inject-42" class="animable" style="transform-origin: 151.598px 286.701px;"><path d="M70.05,154.29a75.78,75.78,0,0,1-3.56-12.65,26.65,26.65,0,0,1,.79-13c.22-.62,2.12-4.84,2.78-4.79.47,0-.67,4-.42,4.37a22.51,22.51,0,0,1,2.79,13.1,59.72,59.72,0,0,1-2.38,13" style="fill: rgb(38, 50, 56); transform-origin: 69.2776px 139.085px;" id="el3p8hf0aj6dr" class="animable"></path><path d="M85.64,116.82l1,0a19.67,19.67,0,0,1,19,18.74c.44,9.53.8,20.06.56,25.16-.49,10.54-11.1,11.82-11.1,11.82s.66,11.14.66,11.14l-11.13.37-12.76-3.5-2.58-43C68.72,126.57,74.65,117.09,85.64,116.82Z" style="fill: rgb(255, 191, 157); transform-origin: 87.7646px 150.435px;" id="elsg9qsevfycp" class="animable"></path><path d="M95.1,172.58a25.55,25.55,0,0,1-13.6-4.53s3.22,8.43,13.78,7.84Z" style="fill: rgb(255, 154, 108); transform-origin: 88.39px 171.985px;" id="elnhrlko3gvxk" class="animable"></path><path d="M102.33,144.44a1.51,1.51,0,0,1-1.51,1.47,1.44,1.44,0,0,1-1.5-1.42,1.51,1.51,0,0,1,1.5-1.47A1.45,1.45,0,0,1,102.33,144.44Z" style="fill: rgb(38, 50, 56); transform-origin: 100.825px 144.465px;" id="elfa6im7at90q" class="animable"></path><path d="M103.23,140.19c-.19.19-1.3-.7-2.92-.75s-2.84.72-3,.51.12-.43.65-.79a4.09,4.09,0,0,1,2.41-.66,4,4,0,0,1,2.33.84C103.17,139.74,103.33,140.1,103.23,140.19Z" style="fill: rgb(38, 50, 56); transform-origin: 100.262px 139.356px;" id="eld6q9udbuqrk" class="animable"></path><path d="M87.76,144.83a1.52,1.52,0,0,1-1.51,1.47,1.44,1.44,0,0,1-1.5-1.41,1.51,1.51,0,0,1,1.5-1.48A1.45,1.45,0,0,1,87.76,144.83Z" style="fill: rgb(38, 50, 56); transform-origin: 86.255px 144.855px;" id="elxdunr3dwl4" class="animable"></path><path d="M87.33,140c-.2.19-1.31-.7-2.93-.75s-2.84.72-3,.51.12-.43.65-.79a4.15,4.15,0,0,1,2.42-.66,4,4,0,0,1,2.32.84C87.26,139.57,87.42,139.93,87.33,140Z" style="fill: rgb(38, 50, 56); transform-origin: 84.3546px 139.167px;" id="elxpx8at9ntd9" class="animable"></path><path d="M92.72,152.67a10.67,10.67,0,0,1,2.64-.38c.42,0,.82-.1.89-.38a2.09,2.09,0,0,0-.23-1.23c-.35-1-.73-2.08-1.12-3.2-1.54-4.55-2.65-8.28-2.46-8.34s1.58,3.58,3.13,8.12c.37,1.12.73,2.19,1.06,3.21a2.38,2.38,0,0,1,.16,1.64,1,1,0,0,1-.7.58,2.66,2.66,0,0,1-.71.07A10.09,10.09,0,0,1,92.72,152.67Z" style="fill: rgb(38, 50, 56); transform-origin: 94.6433px 145.974px;" id="elwoj4jw6ypmg" class="animable"></path><path d="M88,135c-.24.41-1.8-.08-3.71-.19s-3.52.14-3.7-.3c-.08-.2.26-.56.94-.88a6.15,6.15,0,0,1,2.87-.46,6.26,6.26,0,0,1,2.78.84C87.85,134.37,88.13,134.77,88,135Z" style="fill: rgb(38, 50, 56); transform-origin: 84.3047px 134.156px;" id="el49t1n6kroxq" class="animable"></path><path d="M103.47,135.42c-.34.36-1.66,0-3.24-.09s-2.94.19-3.24-.2c-.13-.19.08-.56.68-.9a5.15,5.15,0,0,1,2.65-.55,5,5,0,0,1,2.57.79C103.45,134.86,103.62,135.24,103.47,135.42Z" style="fill: rgb(38, 50, 56); transform-origin: 100.237px 134.624px;" id="el9kusmgu1r84" class="animable"></path><path d="M69.89,145.4c-.18-.08-7.18-2.39-7.2,4.83s7.93,6,7.94,5.79S69.89,145.4,69.89,145.4Z" style="fill: rgb(255, 191, 157); transform-origin: 66.66px 150.607px;" id="el1permrr0urqi" class="animable"></path><path d="M67.74,153s-.12.09-.34.19a1.24,1.24,0,0,1-.94,0A3.1,3.1,0,0,1,65,150.44a4,4,0,0,1,.36-1.8,1.46,1.46,0,0,1,.94-1,.66.66,0,0,1,.75.35c.09.2,0,.35.08.36s.16-.12.1-.42a.8.8,0,0,0-.28-.45,1,1,0,0,0-.7-.19A1.76,1.76,0,0,0,65,148.44a4.22,4.22,0,0,0-.44,2c0,1.46.78,2.82,1.82,3.12a1.32,1.32,0,0,0,1.15-.19C67.73,153.21,67.77,153.05,67.74,153Z" style="fill: rgb(255, 154, 108); transform-origin: 66.1536px 150.45px;" id="elo8cuizdk8dd" class="animable"></path><path d="M100.89,123.67c1.16-.65-2.37-4.41-5.25-5.7-4.35-1.94-11-3.11-15-2-4.81,1.4-8.8,3.82-11.19,8.22a28.44,28.44,0,0,0-3.1,14.52,8.77,8.77,0,0,0,1,4.41c1,1.59,3,2.58,2.89,4.78a3,3,0,0,0,.76,2.2c1.33,1.4,2.94.07,3.68-1.26,1.57-2.84,1.72-6.21,1.84-9.46a21.32,21.32,0,0,0-.5-6.86c-.36-1.2-.94-2.34-1.23-3.55a4.33,4.33,0,0,1,.49-3.61,3.89,3.89,0,0,1,.58-.6,7.52,7.52,0,0,1,7.46-1.47c4.08,1.41,11,3.52,12.84,2.13a11.14,11.14,0,0,0,3.21-3.3Z" style="fill: rgb(38, 50, 56); transform-origin: 83.7127px 133.118px;" id="eljg36ddxlg8" class="animable"></path><path d="M87.63,153.71c.25,0,.27,1.64,1.7,2.8s3.2,1,3.22,1.19-.39.33-1.14.36a4.16,4.16,0,0,1-2.68-.9,3.59,3.59,0,0,1-1.32-2.35C87.34,154.12,87.52,153.7,87.63,153.71Z" style="fill: rgb(38, 50, 56); transform-origin: 89.9725px 155.885px;" id="ela98smdkfrbd" class="animable"></path><path d="M121.6,309.52l5.34.51s2.93-17.68,1-30S115.28,214,115.28,214l-13.46-31.77-2.45-1.07-3.86-4.08,17.22,104.67Z" style="fill: rgb(69, 90, 100); transform-origin: 112.054px 243.555px;" id="el4c6u2uxxvqm" class="animable"></path><g id="elghwuke10ku6"><g style="opacity: 0.3; transform-origin: 112.337px 251.435px;" class="animable"><path d="M99.65,193s22.53,76.13,24,88.47a263.61,263.61,0,0,1,1.37,28.4l-3.46-.33-10.55-33.11s-7.34-52.7-6.74-52.52S99.65,193,99.65,193Z" id="el3l8n03ohjwb" class="animable" style="transform-origin: 112.337px 251.435px;"></path></g></g><path d="M111.48,439l-.76,19.73s20.11,7.38,20.33,11l-38.89-.07L92.05,439Z" style="fill: rgb(38, 50, 56); transform-origin: 111.55px 454.365px;" id="elu7srm1c9bv" class="animable"></path><path d="M98.7,457.08a1.55,1.55,0,0,0-1.1,1.78A1.52,1.52,0,0,0,99.38,460a1.64,1.64,0,0,0,1.16-1.89,1.6,1.6,0,0,0-2-.94" style="fill: rgb(224, 224, 224); transform-origin: 99.0715px 458.555px;" id="el8ijr2xhl6pd" class="animable"></path><path d="M92.16,469.73l.11-3.11,37.24,1.23s1.73.75,1.54,1.95Z" style="fill: rgb(69, 90, 100); transform-origin: 111.612px 468.21px;" id="ely78rka6s5vp" class="animable"></path><path d="M111.35,458.56c0,.19-.95.27-1.89.87s-1.43,1.39-1.61,1.31.11-1.15,1.26-1.86S111.39,458.39,111.35,458.56Z" style="fill: rgb(255, 255, 255); transform-origin: 109.576px 459.567px;" id="el8xthedu9p3d" class="animable"></path><path d="M115.43,460.23c0,.18-.78.5-1.43,1.29s-.83,1.63-1,1.62-.31-1.07.51-2S115.42,460.05,115.43,460.23Z" style="fill: rgb(255, 255, 255); transform-origin: 114.15px 461.653px;" id="elldnaoitl3f" class="animable"></path><path d="M117.74,465c-.18,0-.44-.89.05-1.91s1.38-1.43,1.46-1.28-.47.7-.86,1.55S117.92,465,117.74,465Z" style="fill: rgb(255, 255, 255); transform-origin: 118.383px 463.39px;" id="el1ur63ze0wma" class="animable"></path><path d="M111,454.05c-.08.17-1-.09-2,0s-1.91.4-2,.24.71-.83,2-.89S111.11,453.9,111,454.05Z" style="fill: rgb(255, 255, 255); transform-origin: 109.001px 453.865px;" id="elgxthrx5swq7" class="animable"></path><path d="M65.76,440.52,64.7,464l4.6,18.83a2.42,2.42,0,0,1-2,2.94h0a2.47,2.47,0,0,1-2.14-.67c-3.57-3.52-16.27-16.71-16.33-18-.08-2-.67-25.15-.67-25.15Z" style="fill: rgb(38, 50, 56); transform-origin: 58.7613px 463.162px;" id="el4rrdxm54g7n" class="animable"></path><path d="M67.33,485.79l-18.56-20.5,0,1a3.79,3.79,0,0,0,.82,2.37c1.48,1.79,5.67,6.64,15.55,16.47a2.49,2.49,0,0,0,2.21.67Z" style="fill: rgb(69, 90, 100); transform-origin: 58.06px 475.567px;" id="el4my4izh5nio" class="animable"></path><g id="elre1cgzita7m"><g style="opacity: 0.6; transform-origin: 53.0637px 458.971px;" class="animable"><path d="M53.84,457.81a1.38,1.38,0,0,1-1.56,2.28,1.53,1.53,0,0,1-.37-2,1.49,1.49,0,0,1,2-.17" style="fill: rgb(255, 255, 255); transform-origin: 53.0637px 458.971px;" id="elz115wor6jd" class="animable"></path></g></g><path d="M62.1,475.4a7,7,0,0,1,2.13-1.79,7.82,7.82,0,0,1,2.76-.46c0-.06-.28-.24-.83-.33a3.91,3.91,0,0,0-3.79,1.73C62.08,475,62,475.38,62.1,475.4Z" style="fill: rgb(255, 255, 255); transform-origin: 64.5245px 474.093px;" id="ele4xv09lnaib" class="animable"></path><path d="M63.73,478.58a20.19,20.19,0,0,1,2.13-1,20.51,20.51,0,0,1,2.34-.24,2.73,2.73,0,0,0-2.47-.25C64.31,477.49,63.6,478.51,63.73,478.58Z" style="fill: rgb(255, 255, 255); transform-origin: 65.9574px 477.742px;" id="elriessa7a29" class="animable"></path><path d="M59,471.29a26.23,26.23,0,0,1,3.19-1.71,25.32,25.32,0,0,1,3.56-.74,5.49,5.49,0,0,0-3.74.26A5.35,5.35,0,0,0,59,471.29Z" style="fill: rgb(255, 255, 255); transform-origin: 62.375px 469.959px;" id="elp7vnw0k5xm" class="animable"></path><path d="M58.74,464.12c.06.14,1.39-.37,3.11-.39s3.06.41,3.12.26a4.8,4.8,0,0,0-3.14-.78A4.75,4.75,0,0,0,58.74,464.12Z" style="fill: rgb(255, 255, 255); transform-origin: 61.855px 463.665px;" id="elrtzwl7zbraq" class="animable"></path><path d="M58.87,457.22a11.79,11.79,0,0,1,3.23-.5,12.28,12.28,0,0,1,3.15.85c0-.05-.22-.35-.76-.67a5.32,5.32,0,0,0-2.36-.7,5.4,5.4,0,0,0-2.43.43C59.12,456.89,58.84,457.16,58.87,457.22Z" style="fill: rgb(255, 255, 255); transform-origin: 62.0589px 456.881px;" id="elwdgdahcou7a" class="animable"></path><path d="M62.08,455.4a2,2,0,0,0,.06-.88,6.21,6.21,0,0,0-.67-2.35,2.76,2.76,0,0,0-1.17-1.33,1,1,0,0,0-1.11.19,1.57,1.57,0,0,0-.4,1.05,3.42,3.42,0,0,0,3,3.22,4,4,0,0,0,4-2,1.4,1.4,0,0,0,.09-1.14,1,1,0,0,0-1-.53,3.43,3.43,0,0,0-1.59.77,6.93,6.93,0,0,0-1.67,1.8,2.27,2.27,0,0,0-.39.8,11.21,11.21,0,0,1,2.28-2.3,3.2,3.2,0,0,1,1.4-.64.52.52,0,0,1,.55.28,1,1,0,0,1-.11.75,3.59,3.59,0,0,1-3.47,1.68,3,3,0,0,1-2.56-2.7,1.14,1.14,0,0,1,.25-.74.54.54,0,0,1,.61-.12,2.47,2.47,0,0,1,1,1.11A8.82,8.82,0,0,1,62.08,455.4Z" style="fill: rgb(255, 255, 255); transform-origin: 62.3755px 453.075px;" id="elvgj5g8zd3jj" class="animable"></path><path d="M117.38,277.83s4.68,13.88,4.21,27.12c-.18,5.12-8.16,146.82-8.16,146.82l-23.62,1,.92-133-1.92.5S78.36,377.38,77.7,386.59c-.59,8.28-8.89,68.59-8.89,68.59L47.3,454.6l3.41-77.74,4.76-76.31,2.06-22.24Z" style="fill: rgb(38, 50, 56); transform-origin: 84.4616px 366.505px;" id="elbwx3g5rpjq5" class="animable"></path><path d="M87.9,306.34a4.75,4.75,0,0,0,1,.5,11.55,11.55,0,0,0,3,.89,6.18,6.18,0,0,0,2.17-.08,4.36,4.36,0,0,0,2.23-1.17,5.24,5.24,0,0,0,1.28-2.43,28.3,28.3,0,0,0,.51-2.83c.59-3.86,1-7.38,1.14-9.93.09-1.28.15-2.31.17-3a4.43,4.43,0,0,0,0-1.12,5.42,5.42,0,0,0-.17,1.1l-.33,3c-.28,2.54-.7,6-1.28,9.89-.3,1.91-.48,3.84-1.63,5a5,5,0,0,1-4,1.21,12.67,12.67,0,0,1-2.94-.72A4.94,4.94,0,0,0,87.9,306.34Z" style="fill: rgb(69, 90, 100); transform-origin: 93.6678px 297.48px;" id="elehr3n8al8uu" class="animable"></path><path d="M94.23,288s-.15-.12-.49-.13a2.12,2.12,0,0,0-1.3.48,2.3,2.3,0,0,0-.92,1.84,2.18,2.18,0,0,0,1.6,1.93,2.22,2.22,0,0,0,2.45-.63,2.29,2.29,0,0,0,.37-2,2.14,2.14,0,0,0-.77-1.15c-.27-.18-.46-.21-.47-.18a2.57,2.57,0,0,1,.89,1.41,2,2,0,0,1-.38,1.65,1.79,1.79,0,0,1-1.93.44A1.74,1.74,0,0,1,92,290.2a2,2,0,0,1,.69-1.55A2.58,2.58,0,0,1,94.23,288Z" style="fill: rgb(69, 90, 100); transform-origin: 93.7737px 290.064px;" id="elka2vi81n6cj" class="animable"></path><path d="M57.21,299.17a2.24,2.24,0,0,0,.81.09,14.8,14.8,0,0,0,2.22-.06,21.81,21.81,0,0,0,7-1.92,21.52,21.52,0,0,0,6-4.14,15.8,15.8,0,0,0,1.47-1.64c.31-.41.47-.65.44-.67s-.79.83-2.15,2.06a24,24,0,0,1-12.82,6C58.37,299.1,57.21,299.09,57.21,299.17Z" style="fill: rgb(69, 90, 100); transform-origin: 66.1818px 295.053px;" id="elcd4ikta84g6" class="animable"></path><path d="M67.49,278.32a2.53,2.53,0,0,0,.47.22l1.4.57c1.22.49,3,1.13,5.23,1.86s4.9,1.51,7.91,2.26,6.35,1.43,9.88,2,6.92.9,10,1.13,5.88.29,8.23.27,4.23-.08,5.54-.17l1.5-.11a2,2,0,0,0,.53-.07,3.17,3.17,0,0,0-.53,0l-1.51,0c-1.3,0-3.2.06-5.53,0s-5.12-.14-8.2-.37-6.45-.61-10-1.16-6.85-1.24-9.85-1.95-5.69-1.46-7.92-2.16-4-1.28-5.26-1.72L68,278.46A1.85,1.85,0,0,0,67.49,278.32Z" style="fill: rgb(38, 50, 56); transform-origin: 92.835px 282.477px;" id="elwtqxtxq19d" class="animable"></path><path d="M173.1,112.39a4.18,4.18,0,0,1-.5.4c-.34.25-.86.59-1.48,1.08A54.64,54.64,0,0,0,166,118.2a52.74,52.74,0,0,0-16.57,39.73,56.52,56.52,0,0,0,.54,6.7c.1.79.22,1.4.28,1.82a4.19,4.19,0,0,1,.07.63,2.41,2.41,0,0,1-.18-.61c-.08-.41-.24-1-.37-1.8a49.22,49.22,0,0,1-.71-6.73,51.49,51.49,0,0,1,16.69-40A48.33,48.33,0,0,1,171,113.7c.65-.46,1.18-.77,1.54-1A2.32,2.32,0,0,1,173.1,112.39Z" style="fill: rgb(38, 50, 56); transform-origin: 161.06px 139.735px;" id="el0nrohlx44oc" class="animable"></path><path d="M225.44,195.66a2.74,2.74,0,0,1,.49-.42c.33-.26.84-.61,1.46-1.11a55,55,0,0,0,5-4.45,52.78,52.78,0,0,0,15.63-40.11,56,56,0,0,0-.71-6.69c-.11-.79-.25-1.39-.31-1.81a4.6,4.6,0,0,1-.09-.64,2.48,2.48,0,0,1,.19.62c.1.41.27,1,.41,1.79a47.41,47.41,0,0,1,.87,6.71,51.51,51.51,0,0,1-15.73,40.39,48.46,48.46,0,0,1-5.18,4.35c-.64.48-1.17.8-1.52,1A3.41,3.41,0,0,1,225.44,195.66Z" style="fill: rgb(38, 50, 56); transform-origin: 236.961px 168.045px;" id="elpixtibj3nk8" class="animable"></path><path d="M258,147.31a1.72,1.72,0,0,1,.14.51l.28,1.47a20.54,20.54,0,0,1,.33,2.34c.09.92.25,2,.26,3.13,0,.58,0,1.19.07,1.82s0,1.3,0,2c0,1.38-.16,2.83-.29,4.36a59,59,0,0,1-2.05,9.8A57.93,57.93,0,0,1,252.8,182c-.75,1.34-1.45,2.63-2.23,3.76-.38.57-.72,1.13-1.09,1.65l-1.09,1.46c-.68.95-1.39,1.73-2,2.43a21.43,21.43,0,0,1-1.6,1.75l-1.07,1.05a2.32,2.32,0,0,1-.39.34,2.28,2.28,0,0,1,.32-.42l1-1.11c.44-.48,1-1.07,1.53-1.79s1.26-1.51,1.91-2.47l1.06-1.47c.36-.52.69-1.09,1.06-1.66.76-1.13,1.43-2.41,2.17-3.75a60.22,60.22,0,0,0,3.79-9.16,61.27,61.27,0,0,0,2.07-9.7c.15-1.52.32-3,.34-4.32,0-.68.07-1.33.06-2s0-1.24,0-1.82c0-1.16-.11-2.19-.17-3.11s-.16-1.7-.25-2.34-.14-1.09-.19-1.49A3.37,3.37,0,0,1,258,147.31Z" style="fill: rgb(38, 50, 56); transform-origin: 251.221px 170.875px;" id="el6resp9esprf" class="animable"></path><polygon points="145.75 205.34 135.3 216.13 134.88 225.53 147.68 227.89 147.68 227.89 148.41 222.25 155.4 212.96 145.75 205.34" style="fill: rgb(255, 191, 157); transform-origin: 145.14px 216.615px;" id="elylzwee531gl" class="animable"></polygon><path d="M101.81,182.31s10.92,3.78,13.61,9.25,13.69,30.11,13.69,30.11l4.18,3.73,1.05-2.55,15.84,2.55s-2.93,13.09-6.57,18.8c-6.08,9.52-17.54,8-21.08,4.51-3.19-3.19-5.66-10.41-5.66-10.41Z" style="fill: rgb(69, 90, 100); transform-origin: 125.995px 216.855px;" id="elka31nhzykym" class="animable"></path><polygon points="149.67 225.37 150.18 221.88 136.42 219.06 135.49 223.15 149.67 225.37" style="fill: rgb(224, 224, 224); transform-origin: 142.835px 222.215px;" id="elzv355jqu2l" class="animable"></polygon><path d="M109.67,227.89a17,17,0,0,1-.18-1.92c-.1-1.23-.27-3-.53-5.2-.52-4.39-1.38-10.44-2.67-17.06A120.25,120.25,0,0,0,102,187a30.88,30.88,0,0,0-2.1-4.77c-.62-1.06-1.08-1.57-1-1.61a2.07,2.07,0,0,1,.35.36,10.42,10.42,0,0,1,.85,1.15,26.79,26.79,0,0,1,2.28,4.74,105.55,105.55,0,0,1,4.45,16.72c1.29,6.64,2.1,12.71,2.53,17.12.21,2.2.33,4,.37,5.23,0,.62,0,1.1,0,1.43A1.77,1.77,0,0,1,109.67,227.89Z" style="fill: rgb(38, 50, 56); transform-origin: 104.311px 204.255px;" id="elwfng6xnnc1o" class="animable"></path><path d="M113.21,193.1c.15,0,2.47,13.53,5.19,30.27s4.82,30.34,4.68,30.36-2.47-13.53-5.19-30.27S113.07,193.13,113.21,193.1Z" style="fill: rgb(38, 50, 56); transform-origin: 118.145px 223.415px;" id="eljikovznwhyl" class="animable"></path><path d="M66.4,178.33l4.1-9.43,22.37,14.82,2.45-5.93,8.55,25,11.53,49.68c.36,1.36,2.75,21.77,2,25.41-.56,2.62-.89,4.26-3.3,5.43l-2.3.34-24.71.81L70.26,189Z" style="fill: rgb(245, 245, 245); transform-origin: 91.9724px 226.68px;" id="el8ypkkw5e0zy" class="animable"></path><g id="elea989l82qbk"><g style="opacity: 0.3; transform-origin: 78.281px 284.982px;" class="animable"><path d="M55.45,317s31.91,5.9,39.24,3.77,6.46-9.33,6.46-9.33-.78-21.14-1.5-29.06c-.83-9.09-3.18-33.65-3.18-33.65l-41.09,63Z" id="el9dlyww7khla" class="animable" style="transform-origin: 78.281px 284.982px;"></path></g></g><path d="M93.56,193.26,93,204.6l6.87,62c.44,1.59,9.93,11.26,9.93,11.26l5-13.87-16-61.25-3.38-9.9Z" style="fill: rgb(173, 122, 200); transform-origin: 103.9px 235.35px;" id="elv8oc5yh73ih" class="animable"></path><path d="M52.83,183.72C40.05,190,38.39,201.19,42.51,214.8c.68,2.25,1.17,3.47,2.12,6.11C48.77,232.46,58.45,252.58,58,256.8c-.73,7.66-7.46,34.45-9.69,47.52-1,5.53-.41,8.38-.41,8.38s42.82,8.68,47.61,4.55.22-26.84,0-39.67c-.19-14.17-2.33-37.95-5.15-49.69-1.89-7.83-4.65-21.78-7.81-31.2-2.64-7.88-9.55-20.62-13.52-25.8h0l-3.68,6.29S57,181.7,52.83,183.72Z" style="fill: rgb(69, 90, 100); transform-origin: 69.0962px 244.627px;" id="elnugcguoopi" class="animable"></path><path d="M59,290a4.48,4.48,0,0,1,.55,0l1.48.12,5.43.49c4.6.41,11,1,18.27,1.75l-.3.2,3.27-8.12.15-.39.24.49c-10-1-19-1.86-24.91-2.49l.18-.11c-1.31,2.44-2.37,4.42-3.15,5.86l-.87,1.6A6.6,6.6,0,0,1,59,290s.07-.17.24-.53l.77-1.6,3-6.14.06-.12h.13c5.93.49,14.9,1.3,24.93,2.25l.41,0-.18.45-.15.38c-1.13,2.8-2.23,5.53-3.28,8.11l-.08.22-.21,0c-7.44-.8-13.92-1.58-18.48-2.13l-5.32-.66-1.4-.18A3,3,0,0,1,59,290Z" style="fill: rgb(38, 50, 56); transform-origin: 73.77px 287.315px;" id="el8a417w6lhl4" class="animable"></path><g id="el02vk4c139mdl"><g style="opacity: 0.3; transform-origin: 74.225px 289.885px;" class="animable"><polygon points="60.98 290.23 60.35 292.74 86.13 295.52 88.1 284.25 84.67 292.75 60.98 290.23" id="eltl301kw9kh" class="animable" style="transform-origin: 74.225px 289.885px;"></polygon></g></g><polygon points="90.77 189.67 90.98 190.09 93.56 193.26 95.42 192.81 95.72 188.66 92.87 183.72 90.77 189.67" style="fill: rgb(173, 122, 200); transform-origin: 93.245px 188.49px;" id="elnexbti44nj" class="animable"></polygon><path d="M136.85,141.78a63.62,63.62,0,1,1,105.88,58.89h0a63.61,63.61,0,0,1-105.88-58.89Zm120.58,24.06a59.31,59.31,0,1,0-17.61,31.72A59.32,59.32,0,0,0,257.43,165.84Z" style="fill: rgb(69, 90, 100); transform-origin: 199.235px 154.247px;" id="el3m4op7pbk1t" class="animable"></path><path d="M136.85,141.78a63.62,63.62,0,1,1,105.88,58.89h0a63.61,63.61,0,0,1-105.88-58.89Zm120.58,24.06a59.31,59.31,0,1,0-17.61,31.72A59.32,59.32,0,0,0,257.43,165.84Z" style="fill: rgb(38, 50, 56); transform-origin: 199.235px 154.247px;" id="elclx0heqk74m" class="animable"></path><g id="elu67durgognm"><g style="opacity: 0.3; transform-origin: 199.235px 154.247px;" class="animable"><path d="M136.85,141.78a63.62,63.62,0,1,1,105.88,58.89h0a63.61,63.61,0,0,1-105.88-58.89Zm120.58,24.06a59.31,59.31,0,1,0-17.61,31.72A59.32,59.32,0,0,0,257.43,165.84Z" id="el0ursvyqnag6l" class="animable" style="transform-origin: 199.235px 154.247px;"></path></g></g><path d="M135.29,138.72a63.62,63.62,0,1,1,105.88,58.89h0a63.62,63.62,0,0,1-105.88-58.89Zm120.58,24.05a59.31,59.31,0,1,0-17.62,31.73A59.33,59.33,0,0,0,255.87,162.77Z" style="fill: rgb(38, 50, 56); transform-origin: 197.678px 151.177px;" id="elsxoj2tc0ymc" class="animable"></path><path d="M80.59,275l-2-2c-1.8-1.75-.79-5.74,1.1-7.68l71.09-73.48,9.51,9.2-71,73.37C86.88,276.79,82.91,277.24,80.59,275Z" style="fill: rgb(38, 50, 56); transform-origin: 118.969px 234.15px;" id="elyqtf7alffji" class="animable"></path><path d="M150.24,200.44a1.7,1.7,0,0,1,1.44-.39,2.86,2.86,0,0,1,1.13.79,12.87,12.87,0,0,1,3.66,8.92c0,1.41-.37,3-1.63,3.67l-1.42-.83c-.45-.57-1.77-1.52-1.94-2.22-.74-3,.32-2.83-1.53-7.95A1.75,1.75,0,0,1,150.24,200.44Z" style="fill: rgb(255, 191, 157); transform-origin: 153.116px 206.725px;" id="el96qsjyzdlul" class="animable"></path><path d="M150.58,204.62a7,7,0,0,0-1.41-1.86,2.08,2.08,0,0,0-1.88-.56c-1,.31-1.47,1.73-1.36,3.05a11.64,11.64,0,0,0,1.23,3.75l3.51,7.61.68-.5a1,1,0,0,0,1.52-.33,4,4,0,0,0,.33-2.08A19.86,19.86,0,0,0,150.58,204.62Z" style="fill: rgb(255, 191, 157); transform-origin: 149.569px 209.384px;" id="elt5maybhloqi" class="animable"></path><path d="M148.86,212.22a17.9,17.9,0,0,0-3.52-4.72,4.27,4.27,0,0,0-1.63-1.23,1.54,1.54,0,0,0-1.84.53,2.14,2.14,0,0,0,.25,1.87,87.76,87.76,0,0,0,6,10.62l2.1-2.12C151.22,215.45,149.67,214,148.86,212.22Z" style="fill: rgb(255, 191, 157); transform-origin: 146.152px 212.722px;" id="elgn3zbwygc8" class="animable"></path><path d="M98,235.6l1.84-.39,9.64-8.22,5.28-4.43a3.16,3.16,0,0,1,1.54-.71l5.22-.87a3,3,0,0,1-1.56,3.58L117.1,226l-2.62,3.09.34.67s17.15,2.67,18.22,4a1.78,1.78,0,0,1-.47,2.73,2.76,2.76,0,0,1-1.31.12s.83,2-1.67,3.69c0,0,1.91,2.5-1.42,3.69a5.43,5.43,0,0,1-2.86,2.5,124.75,124.75,0,0,1-13.21,1.78l-12.3,0-2.47.4Z" style="fill: rgb(255, 191, 157); transform-origin: 115.407px 234.825px;" id="ela1gajlcox3n" class="animable"></path><path d="M131.65,236.66a13.66,13.66,0,0,1-4.74.25,19.44,19.44,0,0,1-4.7-.69,23.72,23.72,0,0,1,4.73.16A43.19,43.19,0,0,1,131.65,236.66Z" style="fill: rgb(255, 154, 108); transform-origin: 126.93px 236.59px;" id="elwxa8j9b8qak" class="animable"></path><path d="M129.59,240.32c0,.08-.44.14-1.16.23s-1.7.23-2.82.3a24.49,24.49,0,0,1-2.84-.06,4.39,4.39,0,0,1-1.18-.11c0-.07.44-.22,1.17-.27s1.74,0,2.82-.1,2.1-.15,2.83-.14S129.59,240.25,129.59,240.32Z" style="fill: rgb(255, 154, 108); transform-origin: 125.59px 240.518px;" id="elc09nupbeijn" class="animable"></path><path d="M128.51,243.93a20,20,0,0,1-4.63.62,10.94,10.94,0,0,0-3.17.5c-.75.28-1.1.69-1.16.62s.21-.56,1-1a8.29,8.29,0,0,1,3.28-.68A20.16,20.16,0,0,1,128.51,243.93Z" style="fill: rgb(255, 154, 108); transform-origin: 124.026px 244.75px;" id="elewhfynbpkuh" class="animable"></path><polygon points="92.7 236.14 95.49 252.46 103.05 250.24 100.78 233.12 92.7 236.14" style="fill: rgb(224, 224, 224); transform-origin: 97.875px 242.79px;" id="elkxl49qgtm2" class="animable"></polygon><path d="M92.7,236.14a2.88,2.88,0,0,1,.52-.24l1.57-.64,5.92-2.32.22-.09,0,.25c.6,4.37,1.38,10.11,2.25,16.38q0,.38.09.72l0,.22-.21.07-7.58,2.2-.26.08-.05-.27c-.8-4.82-1.45-8.94-1.9-11.82-.2-1.39-.37-2.51-.5-3.36a9.75,9.75,0,0,1-.14-1.18,9.87,9.87,0,0,1,.28,1.25c.17.86.38,2,.65,3.38.54,2.89,1.27,6.93,2.1,11.65l-.31-.2L103,250l-.19.28-.09-.72c-.81-6.28-1.55-12-2.12-16.4l.26.15L95,235.4l-1.65.56A3.31,3.31,0,0,1,92.7,236.14Z" style="fill: rgb(38, 50, 56); transform-origin: 97.95px 242.81px;" id="elsl647jdkult" class="animable"></path><path d="M54.13,183.11s-12.62,5-13.58,16.85c-.75,9.2,2.19,36.83,2.6,41.74,1.19,14.54,5.5,23.06,16.61,24.8,7.67,1.2,39.11-13.84,39.11-13.84l-2.86-18-29,8.45-2.81-34.59s-.27-2.71-1-6.32" style="fill: rgb(69, 90, 100); transform-origin: 69.6491px 224.839px;" id="el69eysbaf3o2" class="animable"></path><path d="M63.16,202.22s.07.24.17.71.25,1.18.41,2.11.35,2.09.52,3.46.25,2.95.41,4.73c.6,7.12,1.46,17.36,2.51,29.88l-.25-.18,29-8.48.27-.08,0,.27,2.87,18,0,.19-.17.08c-7.17,3.37-14.75,6.73-22.72,9.75a92.42,92.42,0,0,1-11.15,3.56,25,25,0,0,1-2.85.52,8.88,8.88,0,0,1-2.91,0A19.88,19.88,0,0,1,53.94,265a15.76,15.76,0,0,1-4.46-3.37,18.5,18.5,0,0,1-3-4.54,36.9,36.9,0,0,1-2.93-10.12c-.53-3.4-.69-6.73-1-9.95s-.58-6.35-.85-9.38c-.52-6.06-.93-11.71-1.18-16.88-.12-2.58-.2-5-.18-7.38,0-1.16.06-2.3.13-3.4a18.49,18.49,0,0,1,.6-3.15,19.28,19.28,0,0,1,1-2.8,21.81,21.81,0,0,1,1.41-2.39A21.53,21.53,0,0,1,46.6,188,26.78,26.78,0,0,1,52,184.09c.67-.36,1.19-.61,1.55-.77s.55-.21.55-.21l-.53.26c-.35.17-.86.43-1.52.81a27.78,27.78,0,0,0-5.34,3.92,20.94,20.94,0,0,0-4.46,6,17.76,17.76,0,0,0-1,2.77,20,20,0,0,0-.57,3.1c-.06,1.09-.11,2.21-.1,3.38,0,2.32.08,4.78.21,7.36.27,5.15.71,10.8,1.24,16.85q.42,4.55.87,9.38c.35,3.22.53,6.56,1.06,9.91a36.33,36.33,0,0,0,2.89,10,18.42,18.42,0,0,0,3,4.42,15.76,15.76,0,0,0,4.32,3.26,19.41,19.41,0,0,0,5.27,1.67,8.51,8.51,0,0,0,2.76,0A27.28,27.28,0,0,0,65,265.7a93.21,93.21,0,0,0,11.09-3.55c7.94-3,15.52-6.36,22.68-9.72l-.15.27-2.84-18,.31.19-29,8.41-.24.07,0-.25c-1-12.53-1.78-22.77-2.34-29.89-.13-1.78-.25-3.36-.36-4.73s-.31-2.52-.45-3.46-.27-1.62-.36-2.12S63.16,202.22,63.16,202.22Z" style="fill: rgb(38, 50, 56); transform-origin: 69.7035px 224.985px;" id="eleknklpnze5" class="animable"></path><path d="M89.17,221.82a2.36,2.36,0,0,1-.26-.43l-.67-1.28c-.55-1.12-1.39-2.73-2.46-4.7-2.1-4-5.23-9.3-8.66-15.22s-6.36-11.4-8.25-15.47c-1-2-1.68-3.7-2.13-4.87-.21-.54-.39-1-.53-1.35a2.6,2.6,0,0,1-.15-.48,1.87,1.87,0,0,1,.25.44c.16.36.37.79.61,1.31.51,1.14,1.29,2.78,2.28,4.79,2,4,4.93,9.45,8.37,15.37s6.51,11.3,8.54,15.31c1,2,1.81,3.63,2.32,4.78l.57,1.33A1.51,1.51,0,0,1,89.17,221.82Z" style="fill: rgb(38, 50, 56); transform-origin: 77.615px 199.92px;" id="elwr3hg3m4rh" class="animable"></path><path d="M62.51,198.56c-.08,0-.12-.77-.39-2a13.76,13.76,0,0,0-5-8,17.7,17.7,0,0,1-1.62-1.2,5.22,5.22,0,0,1,1.84.9,12.21,12.21,0,0,1,5.2,8.2A4.91,4.91,0,0,1,62.51,198.56Z" style="fill: rgb(38, 50, 56); transform-origin: 59.0695px 192.96px;" id="elymoz0so5kvc" class="animable"></path><path d="M62.34,250.47a9.43,9.43,0,0,1,1.72-4.63,9.3,9.3,0,0,1,3.48-3.5,46.42,46.42,0,0,0-3,3.78A46.4,46.4,0,0,0,62.34,250.47Z" style="fill: rgb(38, 50, 56); transform-origin: 64.94px 246.405px;" id="el6xjllq9w508" class="animable"></path><path d="M93,184.09a3.06,3.06,0,0,1-.17.91c-.15.58-.41,1.41-.78,2.43-.73,2-1.88,4.79-3.33,7.8l-.13.27-.24-.16c-.26-.17-.54-.33-.8-.53a63.49,63.49,0,0,1-6.84-6.07l-2-1.94a4.35,4.35,0,0,1-.69-.75,4.43,4.43,0,0,1,.83.6c.5.42,1.21,1,2.07,1.83,1.75,1.54,4,3.82,6.89,5.9.25.2.52.35.77.52l-.37.11c1.45-3,2.66-5.73,3.47-7.71S92.92,184.07,93,184.09Z" style="fill: rgb(38, 50, 56); transform-origin: 85.51px 189.795px;" id="el7v9dmz4qh0q" class="animable"></path><path d="M99.65,188.29a4.78,4.78,0,0,1-.48,1.1,26,26,0,0,1-1.43,2.73l-.21.32-.21-.33c-.31-.48-.63-1-.94-1.59A29.38,29.38,0,0,1,93.77,185a46.15,46.15,0,0,1,3.06,5.27c.32.56.62,1.1.91,1.58h-.41c.67-1,1.15-2,1.56-2.6S99.6,188.26,99.65,188.29Z" style="fill: rgb(38, 50, 56); transform-origin: 96.71px 188.72px;" id="elikbytm4ack" class="animable"></path></g><g id="freepik--Symbol--inject-42" class="animable" style="transform-origin: 197.66px 151.17px;"><path d="M189.57,122,179.13,140.4l-3-.66L181.9,148l12.29-1L192,145.94l6.25-10.14,2.88,5.09,4,7.08,11.72-7.14-11.21-18.48Z" style="fill: rgb(173, 122, 200); fill-rule: evenodd; transform-origin: 196.49px 135px;" id="elrfu28g6mu3" class="animable"></path><g id="elcdu0wusmima"><g style="opacity: 0.3; transform-origin: 207.505px 135.16px;" class="animable"><polygon points="205.59 122.35 198.21 135.8 205.08 147.97 216.8 140.83 205.59 122.35" style="fill-rule: evenodd; transform-origin: 207.505px 135.16px;" id="ellsn2bzjpf5" class="animable"></polygon></g></g><path d="M172.15,177.39l19.56.43.18,2.52L197,171l-4.3-9.81-.42,2.82L181,163.69l3.39-5.39,3.68-5.32-11.85-6.91-10.73,17.39Z" style="fill: rgb(173, 122, 200); fill-rule: evenodd; transform-origin: 181.245px 163.205px;" id="elha7m8xma6ma" class="animable"></path><g id="el0u6b35jus4h"><g style="opacity: 0.3; transform-origin: 176.8px 154.73px;" class="animable"><polygon points="165.51 163.3 181.02 163.54 188.09 152.83 176.24 145.92 165.51 163.3" style="fill-rule: evenodd; transform-origin: 176.8px 154.73px;" id="elkxnzu8ndfn" class="animable"></polygon></g></g><path d="M229.83,165.57l-9.91-18.52,3.21-1.9-11.35.13-7.19,9.86,3.35-1.11,5.59,11.46-5.84-.29-8.11-.41-.23,13.72,21.61.41Z" style="fill: rgb(173, 122, 200); fill-rule: evenodd; transform-origin: 214.59px 162.035px;" id="el8hv00rjb9e4" class="animable"></path><g id="el9lgejp41gnr"><g style="opacity: 0.3; transform-origin: 210.155px 171.705px;" class="animable"><polygon points="220.96 178.77 213.54 165.33 199.58 164.64 199.35 178.35 220.96 178.77" style="fill-rule: evenodd; transform-origin: 210.155px 171.705px;" id="el2hrchj3oofc" class="animable"></polygon></g></g></g><defs>     <filter id="active" height="200%">         <feMorphology in="SourceAlpha" result="DILATED" operator="dilate" radius="2"></feMorphology>                <feFlood flood-color="#32DFEC" flood-opacity="1" result="PINK"></feFlood>        <feComposite in="PINK" in2="DILATED" operator="in" result="OUTLINE"></feComposite>        <feMerge>            <feMergeNode in="OUTLINE"></feMergeNode>            <feMergeNode in="SourceGraphic"></feMergeNode>        </feMerge>    </filter>    <filter id="hover" height="200%">        <feMorphology in="SourceAlpha" result="DILATED" operator="dilate" radius="2"></feMorphology>                <feFlood flood-color="#ff0000" flood-opacity="0.5" result="PINK"></feFlood>        <feComposite in="PINK" in2="DILATED" operator="in" result="OUTLINE"></feComposite>        <feMerge>            <feMergeNode in="OUTLINE"></feMergeNode>            <feMergeNode in="SourceGraphic"></feMergeNode>        </feMerge>            <feColorMatrix type="matrix" values="0   0   0   0   0                0   1   0   0   0                0   0   0   0   0                0   0   0   1   0 "></feColorMatrix>    </filter></defs></svg>